<svg version="1.1" xmlns="http://www.w3.org/2000/svg" xmlns:xlink="http://www.w3.org/1999/xlink" width="410" height="1110" viewBox="0 0 410 1110"><defs/><g><rect fill="rgb(244,244,244)" stroke="none" x="0" y="0" width="410" height="1110" transform="matrix(1 0 0 1 0 0)" fill-opacity="1"/><g><path fill="rgb(255,115,21)" stroke="none" paint-order="stroke fill markers" d=" M 230 20 L 240 20 L 240 40 L 230 40 L 230 40 L 230 40 L 240 40 L 250 40 L 250 50 L 240 50 L 220 50 L 220 30 L 230 30 L 230 30 L 230 20 L 230 20 Z" fill-opacity="1"/></g><g><path fill="rgb(58,53,53)" stroke="none" paint-order="stroke fill markers" d=" M 300 30 L 300 40 L 290 40 L 280 40 L 270 40 L 270 40 L 270 40 L 280 40 L 290 40 L 300 40 L 300 50 L 290 50 L 280 50 L 260 50 L 260 30 L 270 30 L 280 30 L 290 30 L 300 30 L 300 30 Z" fill-opacity="1"/></g><g><path fill="rgb(58,53,53)" stroke="none" paint-order="stroke fill markers" d=" M 350 10 L 350 20 L 340 20 L 330 20 L 320 20 L 310 20 L 310 10 L 320 10 L 330 10 L 340 10 L 350 10 L 350 10 Z" fill-opacity="1"/></g><g><path fill="rgb(58,53,53)" stroke="none" paint-order="stroke fill markers" d=" M 360 30 L 360 20 L 370 20 L 370 10 L 380 10 L 400 10 L 400 20 L 400 30 L 400 40 L 400 50 L 390 50 L 390 40 L 390 30 L 390 20 L 390 20 L 380 20 L 380 30 L 370 30 L 360 30 L 360 30 Z" fill-opacity="1"/></g><g><path fill="rgb(255,115,21)" stroke="none" paint-order="stroke fill markers" d=" M 250 80 L 250 90 L 240 90 L 220 90 L 220 80 L 210 80 L 210 70 L 210 60 L 220 60 L 220 70 L 230 70 L 230 80 L 230 80 L 240 80 L 250 80 L 250 80 Z" fill-opacity="1"/></g><g><path fill="rgb(35,32,32)" stroke="none" paint-order="stroke fill markers" d=" M 290 60 L 290 70 L 280 70 L 270 70 L 260 70 L 260 60 L 270 60 L 280 60 L 290 60 L 290 60 Z" fill-opacity="1"/></g><g><path fill="rgb(35,32,32)" stroke="none" paint-order="stroke fill markers" d=" M 320 80 L 310 80 L 310 70 L 310 60 L 320 60 L 320 70 L 320 80 L 320 80 Z" fill-opacity="1"/></g><g><path fill="rgb(35,32,32)" stroke="none" paint-order="stroke fill markers" d=" M 190 130 L 190 140 L 180 140 L 170 140 L 170 140 L 170 140 L 180 140 L 190 140 L 190 150 L 180 150 L 160 150 L 160 130 L 170 130 L 180 130 L 190 130 L 190 130 Z" fill-opacity="1"/></g><g><path fill="rgb(35,32,32)" stroke="none" paint-order="stroke fill markers" d=" M 240 110 L 240 120 L 230 120 L 220 120 L 210 120 L 210 110 L 220 110 L 230 110 L 240 110 L 240 110 Z" fill-opacity="1"/></g><g><path fill="rgb(35,32,32)" stroke="none" paint-order="stroke fill markers" d=" M 260 130 L 260 120 L 270 120 L 270 110 L 280 110 L 300 110 L 300 120 L 300 130 L 300 140 L 300 150 L 290 150 L 290 140 L 290 130 L 290 120 L 290 120 L 280 120 L 280 130 L 270 130 L 260 130 L 260 130 Z" fill-opacity="1"/></g><g><path fill="rgb(255,115,21)" stroke="none" paint-order="stroke fill markers" d=" M 340 110 L 340 120 L 330 120 L 320 120 L 310 120 L 310 110 L 320 110 L 330 110 L 340 110 L 340 110 Z" fill-opacity="1"/></g><g><path fill="rgb(35,32,32)" stroke="none" paint-order="stroke fill markers" d=" M 400 130 L 400 140 L 390 140 L 380 140 L 370 140 L 370 140 L 370 140 L 380 140 L 390 140 L 400 140 L 400 150 L 390 150 L 380 150 L 360 150 L 360 130 L 370 130 L 380 130 L 390 130 L 400 130 L 400 130 Z" fill-opacity="1"/></g><g><path fill="rgb(58,53,53)" stroke="none" paint-order="stroke fill markers" d=" M 190 180 L 190 190 L 180 190 L 170 190 L 170 190 L 170 190 L 180 190 L 190 190 L 190 200 L 180 200 L 160 200 L 160 180 L 170 180 L 180 180 L 190 180 L 190 180 Z" fill-opacity="1"/></g><g><path fill="rgb(255,115,21)" stroke="none" paint-order="stroke fill markers" d=" M 240 160 L 240 170 L 230 170 L 220 170 L 210 170 L 210 160 L 220 160 L 230 160 L 240 160 L 240 160 Z" fill-opacity="1"/></g><g><path fill="rgb(255,115,21)" stroke="none" paint-order="stroke fill markers" d=" M 300 180 L 300 190 L 290 190 L 270 190 L 270 180 L 260 180 L 260 170 L 260 160 L 270 160 L 270 170 L 280 170 L 280 180 L 280 180 L 290 180 L 300 180 L 300 180 Z" fill-opacity="1"/></g><g><path fill="rgb(58,53,53)" stroke="none" paint-order="stroke fill markers" d=" M 340 160 L 340 170 L 330 170 L 320 170 L 310 170 L 310 160 L 320 160 L 330 160 L 340 160 L 340 160 Z" fill-opacity="1"/></g><g><path fill="rgb(58,53,53)" stroke="none" paint-order="stroke fill markers" d=" M 370 170 L 380 170 L 380 190 L 370 190 L 370 190 L 370 190 L 380 190 L 390 190 L 390 190 L 380 190 L 380 170 L 390 170 L 400 170 L 400 180 L 390 180 L 390 180 L 400 180 L 400 200 L 390 200 L 380 200 L 360 200 L 360 180 L 370 180 L 370 180 L 370 170 L 370 170 Z" fill-opacity="1"/></g><g><path fill="rgb(35,32,32)" stroke="none" paint-order="stroke fill markers" d=" M 10 280 L 10 270 L 30 270 L 30 290 L 20 290 L 20 290 L 20 300 L 10 300 L 10 280 L 20 280 L 20 280 L 20 280 L 10 280 L 10 280 Z" fill-opacity="1"/></g><g><path fill="rgb(255,115,21)" stroke="none" paint-order="stroke fill markers" d=" M 100 280 L 100 290 L 90 290 L 80 290 L 70 290 L 70 290 L 70 290 L 80 290 L 90 290 L 100 290 L 100 300 L 90 300 L 80 300 L 60 300 L 60 280 L 70 280 L 80 280 L 90 280 L 100 280 L 100 280 Z" fill-opacity="1"/></g><g><path fill="rgb(255,115,21)" stroke="none" paint-order="stroke fill markers" d=" M 140 280 L 140 290 L 130 290 L 120 290 L 120 290 L 120 290 L 130 290 L 140 290 L 140 300 L 130 300 L 110 300 L 110 280 L 120 280 L 130 280 L 140 280 L 140 280 Z" fill-opacity="1"/></g><g><path fill="rgb(58,53,53)" stroke="none" paint-order="stroke fill markers" d=" M 210 300 L 210 290 L 220 290 L 230 290 L 240 290 L 250 290 L 250 300 L 240 300 L 230 300 L 220 300 L 210 300 L 210 300 Z" fill-opacity="1"/></g><g><path fill="rgb(255,115,21)" stroke="none" paint-order="stroke fill markers" d=" M 260 280 L 260 270 L 270 270 L 270 260 L 280 260 L 300 260 L 300 270 L 300 280 L 300 290 L 300 300 L 290 300 L 290 290 L 290 280 L 290 270 L 290 270 L 280 270 L 280 280 L 270 280 L 260 280 L 260 280 Z" fill-opacity="1"/></g><g><path fill="rgb(58,53,53)" stroke="none" paint-order="stroke fill markers" d=" M 330 270 L 330 280 L 310 280 L 310 270 L 310 260 L 320 260 L 320 270 L 320 270 L 330 270 L 330 270 Z" fill-opacity="1"/></g><g><path fill="rgb(35,32,32)" stroke="none" paint-order="stroke fill markers" d=" M 360 300 L 360 290 L 370 290 L 380 290 L 390 290 L 390 290 L 390 280 L 390 270 L 390 260 L 400 260 L 400 270 L 400 280 L 400 300 L 390 300 L 380 300 L 370 300 L 360 300 L 360 300 Z" fill-opacity="1"/></g><g><path fill="rgb(58,53,53)" stroke="none" paint-order="stroke fill markers" d=" M 10 350 L 10 340 L 20 340 L 30 340 L 40 340 L 40 340 L 40 330 L 40 320 L 40 310 L 50 310 L 50 320 L 50 330 L 50 350 L 40 350 L 30 350 L 20 350 L 10 350 L 10 350 Z" fill-opacity="1"/></g><g><path fill="rgb(35,32,32)" stroke="none" paint-order="stroke fill markers" d=" M 60 330 L 60 320 L 70 320 L 70 310 L 80 310 L 100 310 L 100 320 L 100 330 L 100 340 L 100 350 L 90 350 L 90 340 L 90 330 L 90 320 L 90 320 L 80 320 L 80 330 L 70 330 L 60 330 L 60 330 Z" fill-opacity="1"/></g><g><path fill="rgb(255,115,21)" stroke="none" paint-order="stroke fill markers" d=" M 200 310 L 200 320 L 190 320 L 180 320 L 170 320 L 160 320 L 160 310 L 170 310 L 180 310 L 190 310 L 200 310 L 200 310 Z" fill-opacity="1"/></g><g><path fill="rgb(255,115,21)" stroke="none" paint-order="stroke fill markers" d=" M 250 330 L 250 340 L 240 340 L 230 340 L 230 340 L 230 340 L 240 340 L 250 340 L 250 350 L 240 350 L 220 350 L 220 330 L 230 330 L 240 330 L 250 330 L 250 330 Z" fill-opacity="1"/></g><g><path fill="rgb(35,32,32)" stroke="none" paint-order="stroke fill markers" d=" M 340 310 L 350 310 L 350 320 L 350 340 L 340 340 L 340 340 L 340 340 L 350 340 L 350 350 L 330 350 L 330 330 L 340 330 L 340 330 L 340 320 L 340 310 L 340 310 Z" fill-opacity="1"/></g><g><path fill="rgb(255,115,21)" stroke="none" paint-order="stroke fill markers" d=" M 400 330 L 400 340 L 390 340 L 380 340 L 370 340 L 370 340 L 370 340 L 380 340 L 390 340 L 400 340 L 400 350 L 390 350 L 380 350 L 360 350 L 360 330 L 370 330 L 380 330 L 390 330 L 400 330 L 400 330 Z" fill-opacity="1"/></g><g><path fill="rgb(255,115,21)" stroke="none" paint-order="stroke fill markers" d=" M 40 370 L 40 380 L 30 380 L 20 380 L 20 380 L 20 390 L 20 390 L 30 390 L 40 390 L 50 390 L 50 400 L 40 400 L 30 400 L 10 400 L 10 390 L 10 370 L 20 370 L 30 370 L 40 370 L 40 370 Z" fill-opacity="1"/></g><g><path fill="rgb(255,115,21)" stroke="none" paint-order="stroke fill markers" d=" M 100 380 L 100 390 L 90 390 L 80 390 L 70 390 L 70 390 L 70 390 L 80 390 L 90 390 L 100 390 L 100 400 L 90 400 L 80 400 L 60 400 L 60 380 L 70 380 L 80 380 L 90 380 L 100 380 L 100 380 Z" fill-opacity="1"/></g><g><path fill="rgb(255,115,21)" stroke="none" paint-order="stroke fill markers" d=" M 140 360 L 140 370 L 130 370 L 120 370 L 110 370 L 110 360 L 120 360 L 130 360 L 140 360 L 140 360 Z" fill-opacity="1"/></g><g><path fill="rgb(35,32,32)" stroke="none" paint-order="stroke fill markers" d=" M 250 360 L 250 370 L 240 370 L 230 370 L 220 370 L 210 370 L 210 360 L 220 360 L 230 360 L 240 360 L 250 360 L 250 360 Z" fill-opacity="1"/></g><g><path fill="rgb(35,32,32)" stroke="none" paint-order="stroke fill markers" d=" M 280 390 L 280 400 L 260 400 L 260 390 L 260 380 L 270 380 L 270 390 L 270 390 L 280 390 L 280 390 Z" fill-opacity="1"/></g><g><path fill="rgb(35,32,32)" stroke="none" paint-order="stroke fill markers" d=" M 310 380 L 310 370 L 320 370 L 320 360 L 330 360 L 350 360 L 350 370 L 350 380 L 350 390 L 350 400 L 340 400 L 340 390 L 340 380 L 340 370 L 340 370 L 330 370 L 330 380 L 320 380 L 310 380 L 310 380 Z" fill-opacity="1"/></g><g><path fill="rgb(58,53,53)" stroke="none" paint-order="stroke fill markers" d=" M 50 410 L 50 420 L 40 420 L 40 420 L 40 430 L 40 440 L 40 440 L 40 440 L 40 430 L 40 420 L 50 420 L 50 430 L 50 450 L 30 450 L 30 440 L 30 430 L 30 410 L 40 410 L 50 410 L 50 410 Z" fill-opacity="1"/></g><g><path fill="rgb(58,53,53)" stroke="none" paint-order="stroke fill markers" d=" M 80 420 L 80 430 L 60 430 L 60 420 L 60 410 L 70 410 L 70 420 L 70 420 L 80 420 L 80 420 Z" fill-opacity="1"/></g><g><path fill="rgb(35,32,32)" stroke="none" paint-order="stroke fill markers" d=" M 120 430 L 110 430 L 110 420 L 110 410 L 120 410 L 120 420 L 120 430 L 120 430 Z" fill-opacity="1"/></g><g><path fill="rgb(255,115,21)" stroke="none" paint-order="stroke fill markers" d=" M 200 410 L 200 420 L 190 420 L 180 420 L 170 420 L 170 410 L 180 410 L 190 410 L 200 410 L 200 410 Z" fill-opacity="1"/></g><g><path fill="rgb(58,53,53)" stroke="none" paint-order="stroke fill markers" d=" M 290 410 L 290 420 L 280 420 L 270 420 L 270 420 L 270 420 L 280 420 L 300 420 L 300 430 L 300 440 L 300 450 L 290 450 L 290 440 L 290 430 L 290 430 L 280 430 L 260 430 L 260 410 L 270 410 L 280 410 L 290 410 L 290 410 Z" fill-opacity="1"/></g><g><path fill="rgb(58,53,53)" stroke="none" paint-order="stroke fill markers" d=" M 350 430 L 350 440 L 340 440 L 330 440 L 320 440 L 320 440 L 320 440 L 330 440 L 340 440 L 350 440 L 350 450 L 340 450 L 330 450 L 310 450 L 310 430 L 320 430 L 330 430 L 340 430 L 350 430 L 350 430 Z" fill-opacity="1"/></g><g><path fill="rgb(58,53,53)" stroke="none" paint-order="stroke fill markers" d=" M 390 430 L 390 440 L 380 440 L 370 440 L 370 440 L 370 440 L 380 440 L 390 440 L 390 450 L 380 450 L 360 450 L 360 430 L 370 430 L 380 430 L 390 430 L 390 430 Z" fill-opacity="1"/></g><g><path fill="rgb(35,32,32)" stroke="none" paint-order="stroke fill markers" d=" M 20 470 L 30 470 L 30 490 L 20 490 L 20 490 L 20 490 L 30 490 L 40 490 L 40 490 L 30 490 L 30 470 L 40 470 L 50 470 L 50 480 L 40 480 L 40 480 L 50 480 L 50 500 L 40 500 L 30 500 L 10 500 L 10 480 L 20 480 L 20 480 L 20 470 L 20 470 Z" fill-opacity="1"/></g><g><path fill="rgb(255,115,21)" stroke="none" paint-order="stroke fill markers" d=" M 100 460 L 100 470 L 90 470 L 80 470 L 70 470 L 60 470 L 60 460 L 70 460 L 80 460 L 90 460 L 100 460 L 100 460 Z" fill-opacity="1"/></g><g><path fill="rgb(255,115,21)" stroke="none" paint-order="stroke fill markers" d=" M 130 490 L 130 500 L 110 500 L 110 490 L 110 480 L 120 480 L 120 490 L 120 490 L 130 490 L 130 490 Z" fill-opacity="1"/></g><g><path fill="rgb(255,115,21)" stroke="none" paint-order="stroke fill markers" d=" M 180 490 L 180 500 L 160 500 L 160 490 L 160 480 L 170 480 L 170 490 L 170 490 L 180 490 L 180 490 Z" fill-opacity="1"/></g><g><path fill="rgb(255,115,21)" stroke="none" paint-order="stroke fill markers" d=" M 270 480 L 260 480 L 260 470 L 260 460 L 270 460 L 270 470 L 270 480 L 270 480 Z" fill-opacity="1"/></g><g><path fill="rgb(58,53,53)" stroke="none" paint-order="stroke fill markers" d=" M 340 460 L 350 460 L 350 480 L 340 480 L 340 480 L 340 500 L 330 500 L 320 500 L 320 490 L 330 490 L 330 490 L 330 470 L 340 470 L 340 470 L 340 460 L 340 460 Z" fill-opacity="1"/></g><g><path fill="rgb(255,115,21)" stroke="none" paint-order="stroke fill markers" d=" M 380 490 L 380 500 L 360 500 L 360 490 L 360 480 L 370 480 L 370 490 L 370 490 L 380 490 L 380 490 Z" fill-opacity="1"/></g><g><path fill="rgb(255,115,21)" stroke="none" paint-order="stroke fill markers" d=" M 80 540 L 80 550 L 60 550 L 60 540 L 60 530 L 70 530 L 70 540 L 70 540 L 80 540 L 80 540 Z" fill-opacity="1"/></g><g><path fill="rgb(255,115,21)" stroke="none" paint-order="stroke fill markers" d=" M 150 510 L 150 520 L 140 520 L 130 520 L 120 520 L 110 520 L 110 510 L 120 510 L 130 510 L 140 510 L 150 510 L 150 510 Z" fill-opacity="1"/></g><g><path fill="rgb(255,115,21)" stroke="none" paint-order="stroke fill markers" d=" M 200 530 L 200 540 L 190 540 L 180 540 L 170 540 L 170 540 L 170 540 L 180 540 L 190 540 L 200 540 L 200 550 L 190 550 L 180 550 L 160 550 L 160 530 L 170 530 L 180 530 L 190 530 L 200 530 L 200 530 Z" fill-opacity="1"/></g><g><path fill="rgb(255,115,21)" stroke="none" paint-order="stroke fill markers" d=" M 250 530 L 250 540 L 240 540 L 230 540 L 230 540 L 230 540 L 240 540 L 250 540 L 250 550 L 240 550 L 220 550 L 220 530 L 230 530 L 240 530 L 250 530 L 250 530 Z" fill-opacity="1"/></g><g><path fill="rgb(35,32,32)" stroke="none" paint-order="stroke fill markers" d=" M 290 510 L 300 510 L 300 530 L 290 530 L 290 530 L 290 550 L 280 550 L 270 550 L 270 540 L 280 540 L 280 540 L 280 520 L 290 520 L 290 520 L 290 510 L 290 510 Z" fill-opacity="1"/></g><g><path fill="rgb(58,53,53)" stroke="none" paint-order="stroke fill markers" d=" M 310 530 L 310 520 L 320 520 L 340 520 L 340 530 L 340 540 L 340 540 L 350 540 L 350 550 L 330 550 L 330 540 L 330 530 L 330 530 L 320 530 L 310 530 L 310 530 Z" fill-opacity="1"/></g><g><path fill="rgb(58,53,53)" stroke="none" paint-order="stroke fill markers" d=" M 380 540 L 380 550 L 360 550 L 360 540 L 360 530 L 370 530 L 370 540 L 370 540 L 380 540 L 380 540 Z" fill-opacity="1"/></g><g><path fill="rgb(58,53,53)" stroke="none" paint-order="stroke fill markers" d=" M 20 570 L 20 560 L 30 560 L 50 560 L 50 570 L 50 590 L 40 590 L 30 590 L 20 590 L 20 580 L 30 580 L 40 580 L 40 580 L 40 570 L 40 570 L 30 570 L 20 570 L 20 570 Z" fill-opacity="1"/></g><g><path fill="rgb(35,32,32)" stroke="none" paint-order="stroke fill markers" d=" M 130 560 L 140 560 L 140 580 L 130 580 L 130 580 L 130 580 L 140 580 L 140 580 L 140 570 L 140 560 L 150 560 L 150 570 L 150 590 L 140 590 L 120 590 L 120 570 L 130 570 L 130 570 L 130 560 L 130 560 Z" fill-opacity="1"/></g><g><path fill="rgb(58,53,53)" stroke="none" paint-order="stroke fill markers" d=" M 160 580 L 160 570 L 170 570 L 190 570 L 190 580 L 190 590 L 190 590 L 200 590 L 200 600 L 180 600 L 180 590 L 180 580 L 180 580 L 170 580 L 160 580 L 160 580 Z" fill-opacity="1"/></g><g><path fill="rgb(58,53,53)" stroke="none" paint-order="stroke fill markers" d=" M 210 580 L 210 570 L 220 570 L 240 570 L 240 580 L 240 590 L 240 590 L 250 590 L 250 600 L 230 600 L 230 590 L 230 580 L 230 580 L 220 580 L 210 580 L 210 580 Z" fill-opacity="1"/></g><g><path fill="rgb(58,53,53)" stroke="none" paint-order="stroke fill markers" d=" M 300 580 L 300 590 L 290 590 L 280 590 L 270 590 L 270 590 L 270 590 L 280 590 L 290 590 L 300 590 L 300 600 L 290 600 L 280 600 L 260 600 L 260 580 L 270 580 L 280 580 L 290 580 L 300 580 L 300 580 Z" fill-opacity="1"/></g><g><path fill="rgb(58,53,53)" stroke="none" paint-order="stroke fill markers" d=" M 330 590 L 330 600 L 310 600 L 310 590 L 310 580 L 320 580 L 320 590 L 320 590 L 330 590 L 330 590 Z" fill-opacity="1"/></g><g><path fill="rgb(58,53,53)" stroke="none" paint-order="stroke fill markers" d=" M 20 630 L 20 620 L 40 620 L 40 630 L 40 640 L 40 640 L 40 640 L 40 630 L 50 630 L 50 650 L 30 650 L 30 640 L 30 630 L 30 630 L 20 630 L 20 630 Z" fill-opacity="1"/></g><g><path fill="rgb(35,32,32)" stroke="none" paint-order="stroke fill markers" d=" M 100 610 L 100 620 L 90 620 L 80 620 L 70 620 L 60 620 L 60 610 L 70 610 L 80 610 L 90 610 L 100 610 L 100 610 Z" fill-opacity="1"/></g><g><path fill="rgb(35,32,32)" stroke="none" paint-order="stroke fill markers" d=" M 140 630 L 140 640 L 130 640 L 120 640 L 120 640 L 120 640 L 130 640 L 140 640 L 140 650 L 130 650 L 110 650 L 110 630 L 120 630 L 130 630 L 140 630 L 140 630 Z" fill-opacity="1"/></g><g><path fill="rgb(58,53,53)" stroke="none" paint-order="stroke fill markers" d=" M 170 630 L 160 630 L 160 620 L 160 610 L 170 610 L 170 620 L 170 630 L 170 630 Z" fill-opacity="1"/></g><g><path fill="rgb(35,32,32)" stroke="none" paint-order="stroke fill markers" d=" M 260 630 L 260 620 L 270 620 L 270 610 L 280 610 L 300 610 L 300 620 L 300 630 L 290 630 L 290 620 L 290 620 L 280 620 L 280 630 L 270 630 L 260 630 L 260 630 Z" fill-opacity="1"/></g><g><path fill="rgb(58,53,53)" stroke="none" paint-order="stroke fill markers" d=" M 350 630 L 350 640 L 340 640 L 320 640 L 320 630 L 310 630 L 310 620 L 310 610 L 320 610 L 320 620 L 330 620 L 330 630 L 330 630 L 340 630 L 350 630 L 350 630 Z" fill-opacity="1"/></g><g><path fill="rgb(35,32,32)" stroke="none" paint-order="stroke fill markers" d=" M 360 630 L 360 620 L 370 620 L 370 610 L 380 610 L 400 610 L 400 620 L 400 630 L 400 640 L 400 650 L 390 650 L 390 640 L 390 630 L 390 620 L 390 620 L 380 620 L 380 630 L 370 630 L 360 630 L 360 630 Z" fill-opacity="1"/></g><g><path fill="rgb(58,53,53)" stroke="none" paint-order="stroke fill markers" d=" M 50 660 L 50 670 L 40 670 L 30 670 L 20 670 L 20 660 L 30 660 L 40 660 L 50 660 L 50 660 Z" fill-opacity="1"/></g><g><path fill="rgb(35,32,32)" stroke="none" paint-order="stroke fill markers" d=" M 140 660 L 140 670 L 130 670 L 120 670 L 110 670 L 110 660 L 120 660 L 130 660 L 140 660 L 140 660 Z" fill-opacity="1"/></g><g><path fill="rgb(58,53,53)" stroke="none" paint-order="stroke fill markers" d=" M 190 670 L 200 670 L 200 690 L 190 690 L 180 690 L 180 690 L 180 690 L 190 690 L 200 690 L 200 700 L 190 700 L 170 700 L 170 680 L 180 680 L 190 680 L 190 680 L 190 670 L 190 670 Z" fill-opacity="1"/></g><g><path fill="rgb(255,115,21)" stroke="none" paint-order="stroke fill markers" d=" M 240 680 L 240 690 L 230 690 L 220 690 L 220 690 L 220 690 L 230 690 L 240 690 L 240 700 L 230 700 L 210 700 L 210 680 L 220 680 L 230 680 L 240 680 L 240 680 Z" fill-opacity="1"/></g><g><path fill="rgb(58,53,53)" stroke="none" paint-order="stroke fill markers" d=" M 350 660 L 350 670 L 340 670 L 330 670 L 320 670 L 310 670 L 310 660 L 320 660 L 330 660 L 340 660 L 350 660 L 350 660 Z" fill-opacity="1"/></g><g><path fill="rgb(58,53,53)" stroke="none" paint-order="stroke fill markers" d=" M 400 680 L 400 690 L 390 690 L 380 690 L 380 690 L 380 690 L 390 690 L 400 690 L 400 700 L 390 700 L 370 700 L 370 680 L 380 680 L 390 680 L 400 680 L 400 680 Z" fill-opacity="1"/></g><g><path fill="rgb(35,32,32)" stroke="none" paint-order="stroke fill markers" d=" M 50 730 L 50 740 L 40 740 L 30 740 L 30 740 L 30 740 L 40 740 L 50 740 L 50 750 L 40 750 L 20 750 L 20 730 L 30 730 L 40 730 L 50 730 L 50 730 Z" fill-opacity="1"/></g><g><path fill="rgb(255,115,21)" stroke="none" paint-order="stroke fill markers" d=" M 100 730 L 100 740 L 90 740 L 80 740 L 70 740 L 70 740 L 70 740 L 80 740 L 90 740 L 100 740 L 100 750 L 90 750 L 80 750 L 60 750 L 60 730 L 70 730 L 80 730 L 90 730 L 100 730 L 100 730 Z" fill-opacity="1"/></g><g><path fill="rgb(255,115,21)" stroke="none" paint-order="stroke fill markers" d=" M 140 730 L 140 740 L 130 740 L 120 740 L 120 740 L 120 740 L 130 740 L 140 740 L 140 750 L 130 750 L 110 750 L 110 730 L 120 730 L 130 730 L 140 730 L 140 730 Z" fill-opacity="1"/></g><g><path fill="rgb(35,32,32)" stroke="none" paint-order="stroke fill markers" d=" M 250 730 L 250 740 L 240 740 L 220 740 L 220 730 L 210 730 L 210 720 L 210 710 L 220 710 L 220 720 L 230 720 L 230 730 L 230 730 L 240 730 L 250 730 L 250 730 Z" fill-opacity="1"/></g><g><path fill="rgb(255,115,21)" stroke="none" paint-order="stroke fill markers" d=" M 290 710 L 290 720 L 280 720 L 270 720 L 260 720 L 260 710 L 270 710 L 280 710 L 290 710 L 290 710 Z" fill-opacity="1"/></g><g><path fill="rgb(255,115,21)" stroke="none" paint-order="stroke fill markers" d=" M 320 730 L 310 730 L 310 720 L 310 710 L 320 710 L 320 720 L 320 730 L 320 730 Z" fill-opacity="1"/></g><g><path fill="rgb(35,32,32)" stroke="none" paint-order="stroke fill markers" d=" M 40 760 L 40 770 L 30 770 L 20 770 L 10 770 L 10 760 L 20 760 L 30 760 L 40 760 L 40 760 Z" fill-opacity="1"/></g><g><path fill="rgb(58,53,53)" stroke="none" paint-order="stroke fill markers" d=" M 90 770 L 100 770 L 100 790 L 90 790 L 80 790 L 80 790 L 80 790 L 90 790 L 100 790 L 100 800 L 90 800 L 70 800 L 70 780 L 80 780 L 90 780 L 90 780 L 90 770 L 90 770 Z" fill-opacity="1"/></g><g><path fill="rgb(255,115,21)" stroke="none" paint-order="stroke fill markers" d=" M 140 780 L 140 790 L 130 790 L 120 790 L 120 790 L 120 790 L 130 790 L 140 790 L 140 800 L 130 800 L 110 800 L 110 780 L 120 780 L 130 780 L 140 780 L 140 780 Z" fill-opacity="1"/></g><g><path fill="rgb(58,53,53)" stroke="none" paint-order="stroke fill markers" d=" M 250 780 L 250 790 L 240 790 L 230 790 L 220 790 L 220 790 L 220 790 L 230 790 L 240 790 L 250 790 L 250 800 L 240 800 L 230 800 L 210 800 L 210 780 L 220 780 L 230 780 L 240 780 L 250 780 L 250 780 Z" fill-opacity="1"/></g><g><path fill="rgb(58,53,53)" stroke="none" paint-order="stroke fill markers" d=" M 270 780 L 270 770 L 290 770 L 290 780 L 290 790 L 290 790 L 290 790 L 290 780 L 300 780 L 300 800 L 280 800 L 280 790 L 280 780 L 280 780 L 270 780 L 270 780 Z" fill-opacity="1"/></g><g><path fill="rgb(255,115,21)" stroke="none" paint-order="stroke fill markers" d=" M 350 760 L 350 770 L 340 770 L 330 770 L 320 770 L 310 770 L 310 760 L 320 760 L 330 760 L 340 760 L 350 760 L 350 760 Z" fill-opacity="1"/></g><g><path fill="rgb(255,115,21)" stroke="none" paint-order="stroke fill markers" d=" M 370 770 L 380 770 L 380 790 L 370 790 L 370 790 L 370 790 L 380 790 L 390 790 L 390 790 L 380 790 L 380 770 L 390 770 L 400 770 L 400 780 L 390 780 L 390 780 L 400 780 L 400 800 L 390 800 L 380 800 L 360 800 L 360 780 L 370 780 L 370 780 L 370 770 L 370 770 Z" fill-opacity="1"/></g><g><path fill="rgb(35,32,32)" stroke="none" paint-order="stroke fill markers" d=" M 280 820 L 280 830 L 260 830 L 260 820 L 260 810 L 270 810 L 270 820 L 270 820 L 280 820 L 280 820 Z" fill-opacity="1"/></g><g><path fill="rgb(35,32,32)" stroke="none" paint-order="stroke fill markers" d=" M 340 810 L 350 810 L 350 830 L 340 830 L 340 830 L 340 850 L 330 850 L 320 850 L 320 840 L 330 840 L 330 840 L 330 820 L 340 820 L 340 820 L 340 810 L 340 810 Z" fill-opacity="1"/></g><g><path fill="rgb(255,115,21)" stroke="none" paint-order="stroke fill markers" d=" M 390 810 L 390 820 L 380 820 L 370 820 L 360 820 L 360 810 L 370 810 L 380 810 L 390 810 L 390 810 Z" fill-opacity="1"/></g><g><path fill="rgb(35,32,32)" stroke="none" paint-order="stroke fill markers" d=" M 40 910 L 50 910 L 50 930 L 40 930 L 40 930 L 40 950 L 30 950 L 20 950 L 20 940 L 30 940 L 30 940 L 30 920 L 40 920 L 40 920 L 40 910 L 40 910 Z" fill-opacity="1"/></g><g><path fill="rgb(58,53,53)" stroke="none" paint-order="stroke fill markers" d=" M 90 920 L 90 930 L 80 930 L 70 930 L 70 930 L 70 940 L 70 940 L 80 940 L 90 940 L 100 940 L 100 950 L 90 950 L 80 950 L 60 950 L 60 940 L 60 920 L 70 920 L 80 920 L 90 920 L 90 920 Z" fill-opacity="1"/></g><g><path fill="rgb(58,53,53)" stroke="none" paint-order="stroke fill markers" d=" M 130 940 L 130 950 L 110 950 L 110 940 L 110 930 L 110 920 L 120 920 L 120 930 L 120 940 L 120 940 L 130 940 L 130 940 Z" fill-opacity="1"/></g><g><path fill="rgb(255,115,21)" stroke="none" paint-order="stroke fill markers" d=" M 170 930 L 160 930 L 160 920 L 160 910 L 170 910 L 170 920 L 170 930 L 170 930 Z" fill-opacity="1"/></g><g><path fill="rgb(35,32,32)" stroke="none" paint-order="stroke fill markers" d=" M 250 930 L 250 940 L 240 940 L 230 940 L 220 940 L 220 940 L 220 940 L 230 940 L 240 940 L 250 940 L 250 950 L 240 950 L 230 950 L 210 950 L 210 930 L 220 930 L 230 930 L 240 930 L 250 930 L 250 930 Z" fill-opacity="1"/></g><g><path fill="rgb(35,32,32)" stroke="none" paint-order="stroke fill markers" d=" M 290 910 L 290 920 L 280 920 L 270 920 L 260 920 L 260 910 L 270 910 L 280 910 L 290 910 L 290 910 Z" fill-opacity="1"/></g><g><path fill="rgb(255,115,21)" stroke="none" paint-order="stroke fill markers" d=" M 320 920 L 330 920 L 330 940 L 320 940 L 320 940 L 320 940 L 330 940 L 340 940 L 340 940 L 330 940 L 330 920 L 340 920 L 350 920 L 350 930 L 340 930 L 340 930 L 350 930 L 350 950 L 340 950 L 330 950 L 310 950 L 310 930 L 320 930 L 320 930 L 320 920 L 320 920 Z" fill-opacity="1"/></g><g><path fill="rgb(35,32,32)" stroke="none" paint-order="stroke fill markers" d=" M 360 950 L 360 940 L 370 940 L 380 940 L 390 940 L 390 940 L 390 930 L 400 930 L 400 950 L 390 950 L 380 950 L 370 950 L 360 950 L 360 950 Z" fill-opacity="1"/></g><g><path fill="rgb(35,32,32)" stroke="none" paint-order="stroke fill markers" d=" M 50 960 L 50 970 L 40 970 L 30 970 L 20 970 L 10 970 L 10 960 L 20 960 L 30 960 L 40 960 L 50 960 L 50 960 Z" fill-opacity="1"/></g><g><path fill="rgb(35,32,32)" stroke="none" paint-order="stroke fill markers" d=" M 80 980 L 90 980 L 90 1000 L 80 1000 L 70 1000 L 70 990 L 80 990 L 80 990 L 80 980 L 80 980 Z" fill-opacity="1"/></g><g><path fill="rgb(255,115,21)" stroke="none" paint-order="stroke fill markers" d=" M 130 990 L 130 1000 L 120 1000 L 110 1000 L 110 990 L 120 990 L 130 990 L 130 990 Z" fill-opacity="1"/></g><g><path fill="rgb(255,115,21)" stroke="none" paint-order="stroke fill markers" d=" M 160 980 L 160 970 L 170 970 L 190 970 L 190 980 L 190 990 L 190 990 L 200 990 L 200 1000 L 180 1000 L 180 990 L 180 980 L 180 980 L 170 980 L 160 980 L 160 980 Z" fill-opacity="1"/></g><g><path fill="rgb(255,115,21)" stroke="none" paint-order="stroke fill markers" d=" M 250 980 L 250 990 L 240 990 L 230 990 L 230 990 L 230 990 L 240 990 L 250 990 L 250 1000 L 240 1000 L 220 1000 L 220 980 L 230 980 L 240 980 L 250 980 L 250 980 Z" fill-opacity="1"/></g><g><path fill="rgb(35,32,32)" stroke="none" paint-order="stroke fill markers" d=" M 290 960 L 290 970 L 280 970 L 270 970 L 260 970 L 260 960 L 270 960 L 280 960 L 290 960 L 290 960 Z" fill-opacity="1"/></g><g><path fill="rgb(35,32,32)" stroke="none" paint-order="stroke fill markers" d=" M 330 970 L 330 980 L 310 980 L 310 970 L 310 960 L 320 960 L 320 970 L 320 970 L 330 970 L 330 970 Z" fill-opacity="1"/></g><g><path fill="rgb(58,53,53)" stroke="none" paint-order="stroke fill markers" d=" M 360 1000 L 360 990 L 370 990 L 380 990 L 390 990 L 390 990 L 390 980 L 390 970 L 390 960 L 400 960 L 400 970 L 400 980 L 400 1000 L 390 1000 L 380 1000 L 370 1000 L 360 1000 L 360 1000 Z" fill-opacity="1"/></g><g><path fill="rgb(35,32,32)" stroke="none" paint-order="stroke fill markers" d=" M 50 1010 L 50 1020 L 40 1020 L 30 1020 L 20 1020 L 10 1020 L 10 1010 L 20 1010 L 30 1010 L 40 1010 L 50 1010 L 50 1010 Z" fill-opacity="1"/></g><g><path fill="rgb(255,115,21)" stroke="none" paint-order="stroke fill markers" d=" M 90 1030 L 90 1040 L 80 1040 L 70 1040 L 70 1040 L 70 1040 L 80 1040 L 90 1040 L 90 1050 L 80 1050 L 60 1050 L 60 1030 L 70 1030 L 80 1030 L 90 1030 L 90 1030 Z" fill-opacity="1"/></g><g><path fill="rgb(58,53,53)" stroke="none" paint-order="stroke fill markers" d=" M 130 1040 L 130 1050 L 110 1050 L 110 1040 L 110 1030 L 120 1030 L 120 1040 L 120 1040 L 130 1040 L 130 1040 Z" fill-opacity="1"/></g><g><path fill="rgb(58,53,53)" stroke="none" paint-order="stroke fill markers" d=" M 160 1030 L 160 1020 L 170 1020 L 170 1010 L 180 1010 L 200 1010 L 200 1020 L 200 1030 L 200 1040 L 200 1050 L 190 1050 L 190 1040 L 190 1030 L 190 1020 L 190 1020 L 180 1020 L 180 1030 L 170 1030 L 160 1030 L 160 1030 Z" fill-opacity="1"/></g><g><path fill="rgb(35,32,32)" stroke="none" paint-order="stroke fill markers" d=" M 250 1030 L 250 1040 L 240 1040 L 220 1040 L 220 1030 L 210 1030 L 210 1020 L 210 1010 L 220 1010 L 220 1020 L 230 1020 L 230 1030 L 230 1030 L 240 1030 L 250 1030 L 250 1030 Z" fill-opacity="1"/></g><g><path fill="rgb(255,115,21)" stroke="none" paint-order="stroke fill markers" d=" M 290 1010 L 290 1020 L 280 1020 L 270 1020 L 270 1020 L 270 1020 L 280 1020 L 300 1020 L 300 1030 L 300 1040 L 300 1050 L 290 1050 L 290 1040 L 290 1030 L 290 1030 L 280 1030 L 260 1030 L 260 1010 L 270 1010 L 280 1010 L 290 1010 L 290 1010 Z" fill-opacity="1"/></g><g><path fill="rgb(255,115,21)" stroke="none" paint-order="stroke fill markers" d=" M 320 1030 L 320 1020 L 340 1020 L 340 1030 L 340 1040 L 340 1040 L 340 1040 L 340 1030 L 350 1030 L 350 1050 L 330 1050 L 330 1040 L 330 1030 L 330 1030 L 320 1030 L 320 1030 Z" fill-opacity="1"/></g><g><path fill="rgb(35,32,32)" stroke="none" paint-order="stroke fill markers" d=" M 360 1050 L 360 1040 L 370 1040 L 380 1040 L 390 1040 L 390 1040 L 390 1030 L 390 1020 L 390 1010 L 400 1010 L 400 1020 L 400 1030 L 400 1050 L 390 1050 L 380 1050 L 370 1050 L 360 1050 L 360 1050 Z" fill-opacity="1"/></g><g><path fill="rgb(255,115,21)" stroke="none" paint-order="stroke fill markers" d=" M 40 1060 L 50 1060 L 50 1080 L 40 1080 L 30 1080 L 20 1080 L 20 1070 L 30 1070 L 40 1070 L 40 1070 L 40 1060 L 40 1060 Z" fill-opacity="1"/></g><g><path fill="rgb(255,115,21)" stroke="none" paint-order="stroke fill markers" d=" M 90 1080 L 90 1090 L 80 1090 L 70 1090 L 70 1090 L 70 1090 L 80 1090 L 90 1090 L 90 1100 L 80 1100 L 60 1100 L 60 1080 L 70 1080 L 80 1080 L 90 1080 L 90 1080 Z" fill-opacity="1"/></g><g><path fill="rgb(255,115,21)" stroke="none" paint-order="stroke fill markers" d=" M 130 1090 L 130 1100 L 110 1100 L 110 1080 L 120 1080 L 140 1080 L 140 1090 L 140 1090 L 140 1090 L 140 1080 L 140 1070 L 140 1060 L 150 1060 L 150 1070 L 150 1080 L 150 1100 L 130 1100 L 130 1090 L 130 1090 L 120 1090 L 120 1090 L 120 1090 L 130 1090 L 130 1090 Z" fill-opacity="1"/></g><g><path fill="rgb(58,53,53)" stroke="none" paint-order="stroke fill markers" d=" M 170 1070 L 170 1060 L 180 1060 L 200 1060 L 200 1070 L 200 1090 L 190 1090 L 180 1090 L 170 1090 L 170 1080 L 180 1080 L 190 1080 L 190 1080 L 190 1070 L 190 1070 L 180 1070 L 170 1070 L 170 1070 Z" fill-opacity="1"/></g><g><path fill="rgb(58,53,53)" stroke="none" paint-order="stroke fill markers" d=" M 210 1080 L 210 1070 L 220 1070 L 230 1070 L 250 1070 L 250 1080 L 250 1090 L 250 1100 L 240 1100 L 240 1090 L 240 1080 L 240 1080 L 230 1080 L 220 1080 L 210 1080 L 210 1080 Z" fill-opacity="1"/></g><g><path fill="rgb(58,53,53)" stroke="none" paint-order="stroke fill markers" d=" M 210 20 L 210 10 L 220 10 L 230 10 L 250 10 L 250 20 L 250 30 L 250 40 L 240 40 L 240 30 L 240 20 L 240 20 L 230 20 L 220 20 L 210 20 L 210 20 Z" fill-opacity="1"/></g><g><path fill="rgb(255,115,21)" stroke="none" paint-order="stroke fill markers" d=" M 270 20 L 270 10 L 290 10 L 290 20 L 290 20 L 290 20 L 290 10 L 300 10 L 300 30 L 280 30 L 280 20 L 280 20 L 270 20 L 270 20 Z" fill-opacity="1"/></g><g><path fill="rgb(35,32,32)" stroke="none" paint-order="stroke fill markers" d=" M 340 20 L 340 30 L 330 30 L 320 30 L 310 30 L 310 20 L 320 20 L 330 20 L 340 20 L 340 20 Z" fill-opacity="1"/></g><g><path fill="rgb(255,115,21)" stroke="none" paint-order="stroke fill markers" d=" M 380 20 L 390 20 L 390 30 L 390 50 L 380 50 L 370 50 L 370 40 L 380 40 L 380 40 L 380 30 L 380 20 L 380 20 Z" fill-opacity="1"/></g><g><path fill="rgb(35,32,32)" stroke="none" paint-order="stroke fill markers" d=" M 220 70 L 220 60 L 240 60 L 240 70 L 240 70 L 240 70 L 240 60 L 250 60 L 250 80 L 230 80 L 230 70 L 230 70 L 220 70 L 220 70 Z" fill-opacity="1"/></g><g><path fill="rgb(255,115,21)" stroke="none" paint-order="stroke fill markers" d=" M 290 80 L 290 90 L 280 90 L 270 90 L 270 90 L 270 90 L 280 90 L 290 90 L 290 90 L 290 80 L 290 70 L 290 60 L 300 60 L 300 70 L 300 80 L 300 100 L 290 100 L 280 100 L 260 100 L 260 80 L 270 80 L 280 80 L 290 80 L 290 80 Z" fill-opacity="1"/></g><g><path fill="rgb(255,115,21)" stroke="none" paint-order="stroke fill markers" d=" M 320 70 L 330 70 L 330 90 L 320 90 L 320 90 L 320 90 L 330 90 L 330 100 L 310 100 L 310 80 L 320 80 L 320 80 L 320 70 L 320 70 Z" fill-opacity="1"/></g><g><path fill="rgb(255,115,21)" stroke="none" paint-order="stroke fill markers" d=" M 160 130 L 160 120 L 170 120 L 180 120 L 200 120 L 200 130 L 200 140 L 200 150 L 190 150 L 190 140 L 190 130 L 190 130 L 180 130 L 170 130 L 160 130 L 160 130 Z" fill-opacity="1"/></g><g><path fill="rgb(255,115,21)" stroke="none" paint-order="stroke fill markers" d=" M 240 130 L 240 140 L 230 140 L 220 140 L 220 140 L 220 140 L 230 140 L 240 140 L 240 140 L 240 130 L 240 120 L 240 110 L 250 110 L 250 120 L 250 130 L 250 150 L 240 150 L 230 150 L 210 150 L 210 130 L 220 130 L 230 130 L 240 130 L 240 130 Z" fill-opacity="1"/></g><g><path fill="rgb(255,115,21)" stroke="none" paint-order="stroke fill markers" d=" M 280 120 L 290 120 L 290 130 L 290 150 L 280 150 L 270 150 L 270 140 L 280 140 L 280 140 L 280 130 L 280 120 L 280 120 Z" fill-opacity="1"/></g><g><path fill="rgb(58,53,53)" stroke="none" paint-order="stroke fill markers" d=" M 310 130 L 320 130 L 320 140 L 320 140 L 330 140 L 340 140 L 340 140 L 340 140 L 330 140 L 320 140 L 320 130 L 330 130 L 350 130 L 350 150 L 340 150 L 330 150 L 310 150 L 310 140 L 310 130 L 310 130 Z" fill-opacity="1"/></g><g><path fill="rgb(58,53,53)" stroke="none" paint-order="stroke fill markers" d=" M 370 120 L 370 110 L 390 110 L 390 120 L 390 120 L 390 120 L 390 110 L 400 110 L 400 130 L 380 130 L 380 120 L 380 120 L 370 120 L 370 120 Z" fill-opacity="1"/></g><g><path fill="rgb(255,115,21)" stroke="none" paint-order="stroke fill markers" d=" M 170 180 L 160 180 L 160 160 L 170 160 L 180 160 L 190 160 L 200 160 L 200 170 L 190 170 L 180 170 L 170 170 L 170 170 L 170 180 L 170 180 Z" fill-opacity="1"/></g><g><path fill="rgb(58,53,53)" stroke="none" paint-order="stroke fill markers" d=" M 240 180 L 240 190 L 230 190 L 220 190 L 220 190 L 220 190 L 230 190 L 240 190 L 240 190 L 240 180 L 240 170 L 240 160 L 250 160 L 250 170 L 250 180 L 250 200 L 240 200 L 230 200 L 210 200 L 210 180 L 220 180 L 230 180 L 240 180 L 240 180 Z" fill-opacity="1"/></g><g><path fill="rgb(58,53,53)" stroke="none" paint-order="stroke fill markers" d=" M 270 170 L 270 160 L 290 160 L 290 170 L 290 170 L 290 170 L 290 160 L 300 160 L 300 180 L 280 180 L 280 170 L 280 170 L 270 170 L 270 170 Z" fill-opacity="1"/></g><g><path fill="rgb(255,115,21)" stroke="none" paint-order="stroke fill markers" d=" M 340 180 L 340 190 L 330 190 L 320 190 L 320 190 L 320 190 L 330 190 L 340 190 L 340 190 L 340 180 L 340 170 L 340 160 L 350 160 L 350 170 L 350 180 L 350 200 L 340 200 L 330 200 L 310 200 L 310 180 L 320 180 L 330 180 L 340 180 L 340 180 Z" fill-opacity="1"/></g><g><path fill="rgb(255,115,21)" stroke="none" paint-order="stroke fill markers" d=" M 370 180 L 360 180 L 360 170 L 360 160 L 370 160 L 370 170 L 370 180 L 370 180 Z" fill-opacity="1"/></g><g><path fill="rgb(255,115,21)" stroke="none" paint-order="stroke fill markers" d=" M 30 260 L 40 260 L 40 270 L 40 280 L 40 300 L 30 300 L 20 300 L 20 290 L 30 290 L 30 290 L 30 280 L 30 270 L 30 260 L 30 260 Z" fill-opacity="1"/></g><g><path fill="rgb(35,32,32)" stroke="none" paint-order="stroke fill markers" d=" M 70 270 L 70 260 L 90 260 L 90 270 L 90 270 L 90 270 L 90 260 L 100 260 L 100 280 L 80 280 L 80 270 L 80 270 L 70 270 L 70 270 Z" fill-opacity="1"/></g><g><path fill="rgb(58,53,53)" stroke="none" paint-order="stroke fill markers" d=" M 120 280 L 110 280 L 110 260 L 120 260 L 130 260 L 140 260 L 150 260 L 150 270 L 140 270 L 130 270 L 120 270 L 120 270 L 120 280 L 120 280 Z" fill-opacity="1"/></g><g><path fill="rgb(255,115,21)" stroke="none" paint-order="stroke fill markers" d=" M 230 270 L 230 280 L 210 280 L 210 260 L 220 260 L 240 260 L 240 270 L 240 280 L 230 280 L 230 270 L 230 270 L 220 270 L 220 270 L 220 270 L 230 270 L 230 270 Z" fill-opacity="1"/></g><g><path fill="rgb(58,53,53)" stroke="none" paint-order="stroke fill markers" d=" M 280 270 L 290 270 L 290 280 L 290 300 L 280 300 L 270 300 L 270 290 L 280 290 L 280 290 L 280 280 L 280 270 L 280 270 Z" fill-opacity="1"/></g><g><path fill="rgb(35,32,32)" stroke="none" paint-order="stroke fill markers" d=" M 320 270 L 320 260 L 340 260 L 340 270 L 340 280 L 340 290 L 340 290 L 340 290 L 340 280 L 340 270 L 340 260 L 350 260 L 350 270 L 350 280 L 350 300 L 330 300 L 330 290 L 330 280 L 330 270 L 330 270 L 320 270 L 320 270 Z" fill-opacity="1"/></g><g><path fill="rgb(255,115,21)" stroke="none" paint-order="stroke fill markers" d=" M 370 270 L 370 260 L 390 260 L 390 270 L 390 280 L 390 290 L 380 290 L 380 280 L 380 270 L 380 270 L 370 270 L 370 270 Z" fill-opacity="1"/></g><g><path fill="rgb(255,115,21)" stroke="none" paint-order="stroke fill markers" d=" M 20 320 L 20 310 L 40 310 L 40 320 L 40 330 L 40 340 L 30 340 L 30 330 L 30 320 L 30 320 L 20 320 L 20 320 Z" fill-opacity="1"/></g><g><path fill="rgb(255,115,21)" stroke="none" paint-order="stroke fill markers" d=" M 80 320 L 90 320 L 90 330 L 90 350 L 80 350 L 70 350 L 70 340 L 80 340 L 80 340 L 80 330 L 80 320 L 80 320 Z" fill-opacity="1"/></g><g><path fill="rgb(58,53,53)" stroke="none" paint-order="stroke fill markers" d=" M 190 320 L 190 330 L 180 330 L 170 330 L 160 330 L 160 320 L 170 320 L 180 320 L 190 320 L 190 320 Z" fill-opacity="1"/></g><g><path fill="rgb(35,32,32)" stroke="none" paint-order="stroke fill markers" d=" M 240 310 L 240 320 L 230 320 L 230 320 L 230 320 L 240 320 L 240 320 L 240 310 L 250 310 L 250 330 L 240 330 L 220 330 L 220 310 L 230 310 L 240 310 L 240 310 Z" fill-opacity="1"/></g><g><path fill="rgb(255,115,21)" stroke="none" paint-order="stroke fill markers" d=" M 330 310 L 340 310 L 340 330 L 330 330 L 330 330 L 330 340 L 330 350 L 320 350 L 320 340 L 320 320 L 330 320 L 330 320 L 330 310 L 330 310 Z" fill-opacity="1"/></g><g><path fill="rgb(35,32,32)" stroke="none" paint-order="stroke fill markers" d=" M 370 320 L 370 310 L 390 310 L 390 320 L 390 320 L 390 320 L 390 310 L 400 310 L 400 330 L 380 330 L 380 320 L 380 320 L 370 320 L 370 320 Z" fill-opacity="1"/></g><g><path fill="rgb(58,53,53)" stroke="none" paint-order="stroke fill markers" d=" M 30 370 L 30 360 L 50 360 L 50 370 L 50 390 L 40 390 L 30 390 L 20 390 L 20 380 L 30 380 L 40 380 L 40 380 L 40 370 L 40 370 L 30 370 L 30 370 Z" fill-opacity="1"/></g><g><path fill="rgb(35,32,32)" stroke="none" paint-order="stroke fill markers" d=" M 70 370 L 70 360 L 90 360 L 90 370 L 90 370 L 90 370 L 90 360 L 100 360 L 100 380 L 80 380 L 80 370 L 80 370 L 70 370 L 70 370 Z" fill-opacity="1"/></g><g><path fill="rgb(58,53,53)" stroke="none" paint-order="stroke fill markers" d=" M 140 380 L 140 390 L 130 390 L 120 390 L 120 390 L 120 390 L 130 390 L 140 390 L 140 390 L 140 380 L 140 370 L 140 360 L 150 360 L 150 370 L 150 380 L 150 400 L 140 400 L 130 400 L 110 400 L 110 380 L 120 380 L 130 380 L 140 380 L 140 380 Z" fill-opacity="1"/></g><g><path fill="rgb(58,53,53)" stroke="none" paint-order="stroke fill markers" d=" M 240 370 L 240 380 L 230 380 L 220 380 L 210 380 L 210 370 L 220 370 L 230 370 L 240 370 L 240 370 Z" fill-opacity="1"/></g><g><path fill="rgb(255,115,21)" stroke="none" paint-order="stroke fill markers" d=" M 290 380 L 290 390 L 280 390 L 270 390 L 270 380 L 280 380 L 290 380 L 290 380 Z" fill-opacity="1"/></g><g><path fill="rgb(58,53,53)" stroke="none" paint-order="stroke fill markers" d=" M 330 370 L 340 370 L 340 380 L 340 400 L 330 400 L 320 400 L 320 390 L 330 390 L 330 390 L 330 380 L 330 370 L 330 370 Z" fill-opacity="1"/></g><g><path fill="rgb(255,115,21)" stroke="none" paint-order="stroke fill markers" d=" M 10 420 L 10 410 L 30 410 L 30 430 L 20 430 L 10 430 L 10 420 L 20 420 L 20 420 L 20 420 L 10 420 L 10 420 Z" fill-opacity="1"/></g><g><path fill="rgb(35,32,32)" stroke="none" paint-order="stroke fill markers" d=" M 70 420 L 70 410 L 90 410 L 90 420 L 90 430 L 90 440 L 90 440 L 90 440 L 90 430 L 90 420 L 90 410 L 100 410 L 100 420 L 100 430 L 100 450 L 80 450 L 80 440 L 80 430 L 80 420 L 80 420 L 70 420 L 70 420 Z" fill-opacity="1"/></g><g><path fill="rgb(255,115,21)" stroke="none" paint-order="stroke fill markers" d=" M 120 420 L 130 420 L 130 440 L 120 440 L 120 440 L 120 440 L 130 440 L 130 450 L 110 450 L 110 430 L 120 430 L 120 430 L 120 420 L 120 420 Z" fill-opacity="1"/></g><g><path fill="rgb(35,32,32)" stroke="none" paint-order="stroke fill markers" d=" M 160 430 L 170 430 L 170 440 L 170 440 L 180 440 L 190 440 L 190 440 L 190 440 L 180 440 L 170 440 L 170 430 L 180 430 L 200 430 L 200 450 L 190 450 L 180 450 L 160 450 L 160 440 L 160 430 L 160 430 Z" fill-opacity="1"/></g><g><path fill="rgb(35,32,32)" stroke="none" paint-order="stroke fill markers" d=" M 280 430 L 280 440 L 270 440 L 270 440 L 270 450 L 260 450 L 260 430 L 270 430 L 280 430 L 280 430 Z" fill-opacity="1"/></g><g><path fill="rgb(255,115,21)" stroke="none" paint-order="stroke fill markers" d=" M 320 420 L 320 410 L 340 410 L 340 420 L 340 420 L 340 420 L 340 410 L 350 410 L 350 430 L 330 430 L 330 420 L 330 420 L 320 420 L 320 420 Z" fill-opacity="1"/></g><g><path fill="rgb(35,32,32)" stroke="none" paint-order="stroke fill markers" d=" M 370 430 L 360 430 L 360 410 L 370 410 L 380 410 L 390 410 L 400 410 L 400 420 L 390 420 L 380 420 L 370 420 L 370 420 L 370 430 L 370 430 Z" fill-opacity="1"/></g><g><path fill="rgb(58,53,53)" stroke="none" paint-order="stroke fill markers" d=" M 20 480 L 10 480 L 10 470 L 10 460 L 20 460 L 20 470 L 20 480 L 20 480 Z" fill-opacity="1"/></g><g><path fill="rgb(58,53,53)" stroke="none" paint-order="stroke fill markers" d=" M 90 470 L 90 480 L 80 480 L 70 480 L 60 480 L 60 470 L 70 470 L 80 470 L 90 470 L 90 470 Z" fill-opacity="1"/></g><g><path fill="rgb(35,32,32)" stroke="none" paint-order="stroke fill markers" d=" M 140 480 L 140 490 L 130 490 L 120 490 L 120 480 L 130 480 L 140 480 L 140 480 Z" fill-opacity="1"/></g><g><path fill="rgb(58,53,53)" stroke="none" paint-order="stroke fill markers" d=" M 190 480 L 190 490 L 180 490 L 170 490 L 170 480 L 180 480 L 190 480 L 190 480 Z" fill-opacity="1"/></g><g><path fill="rgb(58,53,53)" stroke="none" paint-order="stroke fill markers" d=" M 270 470 L 280 470 L 280 490 L 270 490 L 270 490 L 270 490 L 280 490 L 280 500 L 260 500 L 260 480 L 270 480 L 270 480 L 270 470 L 270 470 Z" fill-opacity="1"/></g><g><path fill="rgb(255,115,21)" stroke="none" paint-order="stroke fill markers" d=" M 310 480 L 310 470 L 330 470 L 330 490 L 320 490 L 320 490 L 320 500 L 310 500 L 310 480 L 320 480 L 320 480 L 320 480 L 310 480 L 310 480 Z" fill-opacity="1"/></g><g><path fill="rgb(58,53,53)" stroke="none" paint-order="stroke fill markers" d=" M 390 480 L 390 490 L 380 490 L 370 490 L 370 480 L 380 480 L 390 480 L 390 480 Z" fill-opacity="1"/></g><g><path fill="rgb(58,53,53)" stroke="none" paint-order="stroke fill markers" d=" M 80 520 L 80 530 L 60 530 L 60 510 L 70 510 L 80 510 L 100 510 L 100 520 L 100 530 L 100 550 L 90 550 L 80 550 L 80 540 L 90 540 L 90 540 L 90 530 L 90 520 L 90 520 L 80 520 L 70 520 L 70 520 L 70 520 L 80 520 L 80 520 Z" fill-opacity="1"/></g><g><path fill="rgb(35,32,32)" stroke="none" paint-order="stroke fill markers" d=" M 140 520 L 140 530 L 130 530 L 120 530 L 110 530 L 110 520 L 120 520 L 130 520 L 140 520 L 140 520 Z" fill-opacity="1"/></g><g><path fill="rgb(58,53,53)" stroke="none" paint-order="stroke fill markers" d=" M 170 520 L 170 510 L 190 510 L 190 520 L 190 520 L 190 520 L 190 510 L 200 510 L 200 530 L 180 530 L 180 520 L 180 520 L 170 520 L 170 520 Z" fill-opacity="1"/></g><g><path fill="rgb(35,32,32)" stroke="none" paint-order="stroke fill markers" d=" M 240 510 L 240 520 L 230 520 L 230 520 L 230 520 L 240 520 L 240 520 L 240 510 L 250 510 L 250 530 L 240 530 L 220 530 L 220 510 L 230 510 L 240 510 L 240 510 Z" fill-opacity="1"/></g><g><path fill="rgb(58,53,53)" stroke="none" paint-order="stroke fill markers" d=" M 260 530 L 260 520 L 280 520 L 280 540 L 270 540 L 270 540 L 270 550 L 260 550 L 260 530 L 270 530 L 270 530 L 270 530 L 260 530 L 260 530 Z" fill-opacity="1"/></g><g><path fill="rgb(35,32,32)" stroke="none" paint-order="stroke fill markers" d=" M 320 520 L 320 510 L 330 510 L 350 510 L 350 520 L 350 530 L 350 540 L 340 540 L 340 530 L 340 520 L 340 520 L 330 520 L 320 520 L 320 520 Z" fill-opacity="1"/></g><g><path fill="rgb(35,32,32)" stroke="none" paint-order="stroke fill markers" d=" M 390 530 L 390 540 L 380 540 L 370 540 L 370 530 L 380 530 L 390 530 L 390 530 Z" fill-opacity="1"/></g><g><path fill="rgb(255,115,21)" stroke="none" paint-order="stroke fill markers" d=" M 10 580 L 20 580 L 20 590 L 20 590 L 30 590 L 40 590 L 50 590 L 50 600 L 40 600 L 30 600 L 10 600 L 10 590 L 10 580 L 10 580 Z" fill-opacity="1"/></g><g><path fill="rgb(58,53,53)" stroke="none" paint-order="stroke fill markers" d=" M 130 560 L 130 570 L 120 570 L 120 570 L 120 580 L 110 580 L 110 560 L 120 560 L 130 560 L 130 560 Z" fill-opacity="1"/></g><g><path fill="rgb(35,32,32)" stroke="none" paint-order="stroke fill markers" d=" M 170 570 L 170 560 L 180 560 L 200 560 L 200 570 L 200 580 L 200 590 L 190 590 L 190 580 L 190 570 L 190 570 L 180 570 L 170 570 L 170 570 Z" fill-opacity="1"/></g><g><path fill="rgb(35,32,32)" stroke="none" paint-order="stroke fill markers" d=" M 220 570 L 220 560 L 230 560 L 250 560 L 250 570 L 250 580 L 250 590 L 240 590 L 240 580 L 240 570 L 240 570 L 230 570 L 220 570 L 220 570 Z" fill-opacity="1"/></g><g><path fill="rgb(35,32,32)" stroke="none" paint-order="stroke fill markers" d=" M 270 570 L 270 560 L 290 560 L 290 570 L 290 570 L 290 570 L 290 560 L 300 560 L 300 580 L 280 580 L 280 570 L 280 570 L 270 570 L 270 570 Z" fill-opacity="1"/></g><g><path fill="rgb(255,115,21)" stroke="none" paint-order="stroke fill markers" d=" M 340 580 L 340 590 L 330 590 L 320 590 L 320 580 L 330 580 L 340 580 L 340 580 Z" fill-opacity="1"/></g><g><path fill="rgb(255,115,21)" stroke="none" paint-order="stroke fill markers" d=" M 20 630 L 10 630 L 10 610 L 20 610 L 30 610 L 50 610 L 50 620 L 50 630 L 40 630 L 40 620 L 40 620 L 30 620 L 20 620 L 20 620 L 20 630 L 20 630 Z" fill-opacity="1"/></g><g><path fill="rgb(255,115,21)" stroke="none" paint-order="stroke fill markers" d=" M 90 620 L 90 630 L 80 630 L 70 630 L 60 630 L 60 620 L 70 620 L 80 620 L 90 620 L 90 620 Z" fill-opacity="1"/></g><g><path fill="rgb(58,53,53)" stroke="none" paint-order="stroke fill markers" d=" M 120 630 L 110 630 L 110 610 L 120 610 L 130 610 L 140 610 L 150 610 L 150 620 L 140 620 L 130 620 L 120 620 L 120 620 L 120 630 L 120 630 Z" fill-opacity="1"/></g><g><path fill="rgb(35,32,32)" stroke="none" paint-order="stroke fill markers" d=" M 170 620 L 180 620 L 180 640 L 170 640 L 170 640 L 170 640 L 180 640 L 180 650 L 160 650 L 160 630 L 170 630 L 170 630 L 170 620 L 170 620 Z" fill-opacity="1"/></g><g><path fill="rgb(58,53,53)" stroke="none" paint-order="stroke fill markers" d=" M 280 630 L 280 640 L 270 640 L 270 640 L 270 640 L 280 640 L 280 650 L 260 650 L 260 630 L 270 630 L 280 630 L 280 630 Z" fill-opacity="1"/></g><g><path fill="rgb(35,32,32)" stroke="none" paint-order="stroke fill markers" d=" M 320 620 L 320 610 L 340 610 L 340 620 L 340 620 L 340 620 L 340 610 L 350 610 L 350 630 L 330 630 L 330 620 L 330 620 L 320 620 L 320 620 Z" fill-opacity="1"/></g><g><path fill="rgb(58,53,53)" stroke="none" paint-order="stroke fill markers" d=" M 380 620 L 390 620 L 390 630 L 390 650 L 380 650 L 370 650 L 370 640 L 380 640 L 380 640 L 380 630 L 380 620 L 380 620 Z" fill-opacity="1"/></g><g><path fill="rgb(255,115,21)" stroke="none" paint-order="stroke fill markers" d=" M 10 680 L 20 680 L 20 690 L 20 690 L 30 690 L 40 690 L 40 690 L 40 690 L 30 690 L 20 690 L 20 680 L 30 680 L 50 680 L 50 700 L 40 700 L 30 700 L 10 700 L 10 690 L 10 680 L 10 680 Z" fill-opacity="1"/></g><g><path fill="rgb(255,115,21)" stroke="none" paint-order="stroke fill markers" d=" M 110 680 L 120 680 L 120 690 L 120 690 L 130 690 L 140 690 L 140 690 L 140 690 L 130 690 L 120 690 L 120 680 L 130 680 L 150 680 L 150 700 L 140 700 L 130 700 L 110 700 L 110 690 L 110 680 L 110 680 Z" fill-opacity="1"/></g><g><path fill="rgb(255,115,21)" stroke="none" paint-order="stroke fill markers" d=" M 160 670 L 160 660 L 170 660 L 180 660 L 190 660 L 200 660 L 200 670 L 190 670 L 180 670 L 170 670 L 160 670 L 160 670 Z" fill-opacity="1"/></g><g><path fill="rgb(58,53,53)" stroke="none" paint-order="stroke fill markers" d=" M 220 680 L 210 680 L 210 660 L 220 660 L 230 660 L 240 660 L 250 660 L 250 670 L 240 670 L 230 670 L 220 670 L 220 670 L 220 680 L 220 680 Z" fill-opacity="1"/></g><g><path fill="rgb(255,115,21)" stroke="none" paint-order="stroke fill markers" d=" M 340 670 L 340 680 L 330 680 L 320 680 L 310 680 L 310 670 L 320 670 L 330 670 L 340 670 L 340 670 Z" fill-opacity="1"/></g><g><path fill="rgb(35,32,32)" stroke="none" paint-order="stroke fill markers" d=" M 390 660 L 390 670 L 380 670 L 380 670 L 380 670 L 390 670 L 390 670 L 390 660 L 400 660 L 400 680 L 390 680 L 370 680 L 370 660 L 380 660 L 390 660 L 390 660 Z" fill-opacity="1"/></g><g><path fill="rgb(255,115,21)" stroke="none" paint-order="stroke fill markers" d=" M 40 710 L 40 720 L 30 720 L 30 720 L 30 720 L 40 720 L 40 720 L 40 710 L 50 710 L 50 730 L 40 730 L 20 730 L 20 710 L 30 710 L 40 710 L 40 710 Z" fill-opacity="1"/></g><g><path fill="rgb(58,53,53)" stroke="none" paint-order="stroke fill markers" d=" M 70 720 L 70 710 L 90 710 L 90 720 L 90 720 L 90 720 L 90 710 L 100 710 L 100 730 L 80 730 L 80 720 L 80 720 L 70 720 L 70 720 Z" fill-opacity="1"/></g><g><path fill="rgb(35,32,32)" stroke="none" paint-order="stroke fill markers" d=" M 120 730 L 110 730 L 110 710 L 120 710 L 130 710 L 140 710 L 150 710 L 150 720 L 140 720 L 130 720 L 120 720 L 120 720 L 120 730 L 120 730 Z" fill-opacity="1"/></g><g><path fill="rgb(255,115,21)" stroke="none" paint-order="stroke fill markers" d=" M 220 720 L 220 710 L 240 710 L 240 720 L 240 720 L 240 720 L 240 710 L 250 710 L 250 730 L 230 730 L 230 720 L 230 720 L 220 720 L 220 720 Z" fill-opacity="1"/></g><g><path fill="rgb(35,32,32)" stroke="none" paint-order="stroke fill markers" d=" M 290 730 L 290 740 L 280 740 L 270 740 L 270 740 L 270 740 L 280 740 L 290 740 L 290 740 L 290 730 L 290 720 L 290 710 L 300 710 L 300 720 L 300 730 L 300 750 L 290 750 L 280 750 L 260 750 L 260 730 L 270 730 L 280 730 L 290 730 L 290 730 Z" fill-opacity="1"/></g><g><path fill="rgb(35,32,32)" stroke="none" paint-order="stroke fill markers" d=" M 320 720 L 330 720 L 330 740 L 320 740 L 320 740 L 320 740 L 330 740 L 330 750 L 310 750 L 310 730 L 320 730 L 320 730 L 320 720 L 320 720 Z" fill-opacity="1"/></g><g><path fill="rgb(255,115,21)" stroke="none" paint-order="stroke fill markers" d=" M 10 780 L 20 780 L 20 790 L 20 790 L 30 790 L 40 790 L 40 790 L 40 790 L 30 790 L 20 790 L 20 780 L 30 780 L 50 780 L 50 800 L 40 800 L 30 800 L 10 800 L 10 790 L 10 780 L 10 780 Z" fill-opacity="1"/></g><g><path fill="rgb(255,115,21)" stroke="none" paint-order="stroke fill markers" d=" M 60 770 L 60 760 L 70 760 L 80 760 L 90 760 L 100 760 L 100 770 L 90 770 L 80 770 L 70 770 L 60 770 L 60 770 Z" fill-opacity="1"/></g><g><path fill="rgb(58,53,53)" stroke="none" paint-order="stroke fill markers" d=" M 120 780 L 110 780 L 110 760 L 120 760 L 130 760 L 140 760 L 150 760 L 150 770 L 140 770 L 130 770 L 120 770 L 120 770 L 120 780 L 120 780 Z" fill-opacity="1"/></g><g><path fill="rgb(255,115,21)" stroke="none" paint-order="stroke fill markers" d=" M 220 770 L 220 760 L 240 760 L 240 770 L 240 770 L 240 770 L 240 760 L 250 760 L 250 780 L 230 780 L 230 770 L 230 770 L 220 770 L 220 770 Z" fill-opacity="1"/></g><g><path fill="rgb(35,32,32)" stroke="none" paint-order="stroke fill markers" d=" M 270 780 L 260 780 L 260 760 L 270 760 L 280 760 L 300 760 L 300 770 L 300 780 L 290 780 L 290 770 L 290 770 L 280 770 L 270 770 L 270 770 L 270 780 L 270 780 Z" fill-opacity="1"/></g><g><path fill="rgb(35,32,32)" stroke="none" paint-order="stroke fill markers" d=" M 340 770 L 340 780 L 330 780 L 320 780 L 310 780 L 310 770 L 320 770 L 330 770 L 340 770 L 340 770 Z" fill-opacity="1"/></g><g><path fill="rgb(58,53,53)" stroke="none" paint-order="stroke fill markers" d=" M 370 780 L 360 780 L 360 770 L 360 760 L 370 760 L 370 770 L 370 780 L 370 780 Z" fill-opacity="1"/></g><g><path fill="rgb(58,53,53)" stroke="none" paint-order="stroke fill markers" d=" M 260 830 L 270 830 L 270 840 L 270 840 L 280 840 L 290 840 L 290 840 L 290 830 L 290 820 L 290 810 L 300 810 L 300 820 L 300 830 L 300 850 L 290 850 L 280 850 L 260 850 L 260 840 L 260 830 L 260 830 Z" fill-opacity="1"/></g><g><path fill="rgb(255,115,21)" stroke="none" paint-order="stroke fill markers" d=" M 310 830 L 310 820 L 330 820 L 330 840 L 320 840 L 320 840 L 320 850 L 310 850 L 310 830 L 320 830 L 320 830 L 320 830 L 310 830 L 310 830 Z" fill-opacity="1"/></g><g><path fill="rgb(35,32,32)" stroke="none" paint-order="stroke fill markers" d=" M 390 830 L 390 840 L 380 840 L 370 840 L 370 840 L 370 840 L 380 840 L 390 840 L 390 840 L 390 830 L 390 820 L 390 810 L 400 810 L 400 820 L 400 830 L 400 850 L 390 850 L 380 850 L 360 850 L 360 830 L 370 830 L 380 830 L 390 830 L 390 830 Z" fill-opacity="1"/></g><g><path fill="rgb(58,53,53)" stroke="none" paint-order="stroke fill markers" d=" M 10 930 L 10 920 L 30 920 L 30 940 L 20 940 L 20 940 L 20 950 L 10 950 L 10 930 L 20 930 L 20 930 L 20 930 L 10 930 L 10 930 Z" fill-opacity="1"/></g><g><path fill="rgb(35,32,32)" stroke="none" paint-order="stroke fill markers" d=" M 80 920 L 80 910 L 100 910 L 100 920 L 100 940 L 90 940 L 80 940 L 70 940 L 70 930 L 80 930 L 90 930 L 90 930 L 90 920 L 90 920 L 80 920 L 80 920 Z" fill-opacity="1"/></g><g><path fill="rgb(255,115,21)" stroke="none" paint-order="stroke fill markers" d=" M 140 930 L 140 940 L 120 940 L 120 920 L 130 920 L 150 920 L 150 930 L 150 950 L 140 950 L 130 950 L 130 940 L 140 940 L 140 940 L 140 930 L 140 930 L 130 930 L 130 930 L 130 930 L 140 930 L 140 930 Z" fill-opacity="1"/></g><g><path fill="rgb(35,32,32)" stroke="none" paint-order="stroke fill markers" d=" M 170 920 L 180 920 L 180 940 L 170 940 L 170 940 L 170 940 L 180 940 L 180 950 L 160 950 L 160 930 L 170 930 L 170 930 L 170 920 L 170 920 Z" fill-opacity="1"/></g><g><path fill="rgb(255,115,21)" stroke="none" paint-order="stroke fill markers" d=" M 220 920 L 220 910 L 240 910 L 240 920 L 240 920 L 240 920 L 240 910 L 250 910 L 250 930 L 230 930 L 230 920 L 230 920 L 220 920 L 220 920 Z" fill-opacity="1"/></g><g><path fill="rgb(58,53,53)" stroke="none" paint-order="stroke fill markers" d=" M 260 930 L 270 930 L 270 940 L 270 940 L 280 940 L 290 940 L 290 940 L 290 940 L 280 940 L 270 940 L 270 930 L 280 930 L 300 930 L 300 950 L 290 950 L 280 950 L 260 950 L 260 940 L 260 930 L 260 930 Z" fill-opacity="1"/></g><g><path fill="rgb(58,53,53)" stroke="none" paint-order="stroke fill markers" d=" M 320 930 L 310 930 L 310 920 L 310 910 L 320 910 L 320 920 L 320 930 L 320 930 Z" fill-opacity="1"/></g><g><path fill="rgb(58,53,53)" stroke="none" paint-order="stroke fill markers" d=" M 390 930 L 390 940 L 380 940 L 370 940 L 360 940 L 360 930 L 370 930 L 380 930 L 390 930 L 390 930 Z" fill-opacity="1"/></g><g><path fill="rgb(58,53,53)" stroke="none" paint-order="stroke fill markers" d=" M 40 970 L 40 980 L 30 980 L 20 980 L 10 980 L 10 970 L 20 970 L 30 970 L 40 970 L 40 970 Z" fill-opacity="1"/></g><g><path fill="rgb(255,115,21)" stroke="none" paint-order="stroke fill markers" d=" M 70 970 L 70 960 L 90 960 L 90 980 L 80 980 L 60 980 L 60 970 L 60 960 L 70 960 L 70 970 L 70 970 L 80 970 L 80 970 L 80 970 L 70 970 L 70 970 Z" fill-opacity="1"/></g><g><path fill="rgb(58,53,53)" stroke="none" paint-order="stroke fill markers" d=" M 110 990 L 110 980 L 120 980 L 140 980 L 140 990 L 140 990 L 140 990 L 140 980 L 140 970 L 150 970 L 150 980 L 150 1000 L 130 1000 L 130 990 L 130 990 L 120 990 L 110 990 L 110 990 Z" fill-opacity="1"/></g><g><path fill="rgb(35,32,32)" stroke="none" paint-order="stroke fill markers" d=" M 170 970 L 170 960 L 180 960 L 200 960 L 200 970 L 200 980 L 200 990 L 190 990 L 190 980 L 190 970 L 190 970 L 180 970 L 170 970 L 170 970 Z" fill-opacity="1"/></g><g><path fill="rgb(35,32,32)" stroke="none" paint-order="stroke fill markers" d=" M 240 960 L 240 970 L 230 970 L 230 970 L 230 970 L 240 970 L 240 970 L 240 960 L 250 960 L 250 980 L 240 980 L 220 980 L 220 960 L 230 960 L 240 960 L 240 960 Z" fill-opacity="1"/></g><g><path fill="rgb(58,53,53)" stroke="none" paint-order="stroke fill markers" d=" M 290 980 L 290 990 L 280 990 L 270 990 L 270 990 L 270 990 L 280 990 L 290 990 L 290 990 L 290 980 L 290 970 L 290 960 L 300 960 L 300 970 L 300 980 L 300 1000 L 290 1000 L 280 1000 L 260 1000 L 260 980 L 270 980 L 280 980 L 290 980 L 290 980 Z" fill-opacity="1"/></g><g><path fill="rgb(58,53,53)" stroke="none" paint-order="stroke fill markers" d=" M 320 970 L 320 960 L 340 960 L 340 970 L 340 980 L 340 990 L 340 990 L 340 990 L 340 980 L 340 970 L 340 960 L 350 960 L 350 970 L 350 980 L 350 1000 L 330 1000 L 330 990 L 330 980 L 330 970 L 330 970 L 320 970 L 320 970 Z" fill-opacity="1"/></g><g><path fill="rgb(255,115,21)" stroke="none" paint-order="stroke fill markers" d=" M 370 970 L 370 960 L 390 960 L 390 970 L 390 980 L 390 990 L 380 990 L 380 980 L 380 970 L 380 970 L 370 970 L 370 970 Z" fill-opacity="1"/></g><g><path fill="rgb(255,115,21)" stroke="none" paint-order="stroke fill markers" d=" M 10 1030 L 20 1030 L 20 1040 L 20 1040 L 30 1040 L 40 1040 L 40 1040 L 40 1040 L 30 1040 L 20 1040 L 20 1030 L 30 1030 L 50 1030 L 50 1050 L 40 1050 L 30 1050 L 10 1050 L 10 1040 L 10 1030 L 10 1030 Z" fill-opacity="1"/></g><g><path fill="rgb(58,53,53)" stroke="none" paint-order="stroke fill markers" d=" M 70 1030 L 60 1030 L 60 1010 L 70 1010 L 80 1010 L 90 1010 L 100 1010 L 100 1020 L 90 1020 L 80 1020 L 70 1020 L 70 1020 L 70 1030 L 70 1030 Z" fill-opacity="1"/></g><g><path fill="rgb(255,115,21)" stroke="none" paint-order="stroke fill markers" d=" M 140 1030 L 140 1040 L 130 1040 L 120 1040 L 120 1030 L 130 1030 L 140 1030 L 140 1030 Z" fill-opacity="1"/></g><g><path fill="rgb(35,32,32)" stroke="none" paint-order="stroke fill markers" d=" M 180 1020 L 190 1020 L 190 1030 L 190 1050 L 180 1050 L 170 1050 L 170 1040 L 180 1040 L 180 1040 L 180 1030 L 180 1020 L 180 1020 Z" fill-opacity="1"/></g><g><path fill="rgb(255,115,21)" stroke="none" paint-order="stroke fill markers" d=" M 220 1020 L 220 1010 L 240 1010 L 240 1020 L 240 1020 L 240 1020 L 240 1010 L 250 1010 L 250 1030 L 230 1030 L 230 1020 L 230 1020 L 220 1020 L 220 1020 Z" fill-opacity="1"/></g><g><path fill="rgb(35,32,32)" stroke="none" paint-order="stroke fill markers" d=" M 280 1030 L 280 1040 L 270 1040 L 270 1040 L 270 1050 L 260 1050 L 260 1030 L 270 1030 L 280 1030 L 280 1030 Z" fill-opacity="1"/></g><g><path fill="rgb(58,53,53)" stroke="none" paint-order="stroke fill markers" d=" M 320 1030 L 310 1030 L 310 1010 L 320 1010 L 330 1010 L 350 1010 L 350 1020 L 350 1030 L 340 1030 L 340 1020 L 340 1020 L 330 1020 L 320 1020 L 320 1020 L 320 1030 L 320 1030 Z" fill-opacity="1"/></g><g><path fill="rgb(58,53,53)" stroke="none" paint-order="stroke fill markers" d=" M 360 1020 L 360 1010 L 380 1010 L 380 1030 L 370 1030 L 370 1030 L 370 1040 L 360 1040 L 360 1020 L 370 1020 L 370 1020 L 370 1020 L 360 1020 L 360 1020 Z" fill-opacity="1"/></g><g><path fill="rgb(58,53,53)" stroke="none" paint-order="stroke fill markers" d=" M 40 1080 L 40 1090 L 30 1090 L 20 1090 L 20 1090 L 20 1090 L 30 1090 L 40 1090 L 40 1090 L 40 1080 L 50 1080 L 50 1100 L 40 1100 L 30 1100 L 10 1100 L 10 1080 L 20 1080 L 30 1080 L 40 1080 L 40 1080 Z" fill-opacity="1"/></g><g><path fill="rgb(35,32,32)" stroke="none" paint-order="stroke fill markers" d=" M 90 1070 L 90 1080 L 80 1080 L 60 1080 L 60 1070 L 60 1060 L 70 1060 L 70 1070 L 70 1070 L 80 1070 L 90 1070 L 90 1070 Z" fill-opacity="1"/></g><g><path fill="rgb(58,53,53)" stroke="none" paint-order="stroke fill markers" d=" M 140 1060 L 140 1070 L 130 1070 L 120 1070 L 110 1070 L 110 1060 L 120 1060 L 130 1060 L 140 1060 L 140 1060 Z" fill-opacity="1"/></g><g><path fill="rgb(255,115,21)" stroke="none" paint-order="stroke fill markers" d=" M 160 1080 L 170 1080 L 170 1090 L 170 1090 L 180 1090 L 190 1090 L 200 1090 L 200 1100 L 190 1100 L 180 1100 L 160 1100 L 160 1090 L 160 1080 L 160 1080 Z" fill-opacity="1"/></g><g><path fill="rgb(255,115,21)" stroke="none" paint-order="stroke fill markers" d=" M 240 1080 L 240 1090 L 230 1090 L 220 1090 L 220 1090 L 220 1090 L 230 1090 L 240 1090 L 240 1100 L 230 1100 L 210 1100 L 210 1080 L 220 1080 L 230 1080 L 240 1080 L 240 1080 Z" fill-opacity="1"/></g><g><path fill="rgb(35,32,32)" stroke="none" paint-order="stroke fill markers" d=" M 230 20 L 230 30 L 220 30 L 220 30 L 220 40 L 220 50 L 210 50 L 210 40 L 210 20 L 220 20 L 230 20 L 230 20 Z" fill-opacity="1"/></g><g><path fill="rgb(35,32,32)" stroke="none" paint-order="stroke fill markers" d=" M 260 30 L 260 20 L 270 20 L 280 20 L 280 30 L 270 30 L 260 30 L 260 30 Z" fill-opacity="1"/></g><g><path fill="rgb(255,115,21)" stroke="none" paint-order="stroke fill markers" d=" M 340 30 L 340 40 L 330 40 L 320 40 L 320 40 L 320 40 L 330 40 L 340 40 L 340 40 L 340 30 L 340 20 L 350 20 L 350 30 L 350 50 L 340 50 L 330 50 L 310 50 L 310 30 L 320 30 L 330 30 L 340 30 L 340 30 Z" fill-opacity="1"/></g><g><path fill="rgb(35,32,32)" stroke="none" paint-order="stroke fill markers" d=" M 380 30 L 380 40 L 370 40 L 370 40 L 370 50 L 360 50 L 360 30 L 370 30 L 380 30 L 380 30 Z" fill-opacity="1"/></g><g><path fill="rgb(58,53,53)" stroke="none" paint-order="stroke fill markers" d=" M 210 80 L 220 80 L 220 90 L 220 90 L 230 90 L 240 90 L 250 90 L 250 100 L 240 100 L 230 100 L 210 100 L 210 90 L 210 80 L 210 80 Z" fill-opacity="1"/></g><g><path fill="rgb(58,53,53)" stroke="none" paint-order="stroke fill markers" d=" M 290 70 L 290 80 L 280 80 L 270 80 L 260 80 L 260 70 L 270 70 L 280 70 L 290 70 L 290 70 Z" fill-opacity="1"/></g><g><path fill="rgb(58,53,53)" stroke="none" paint-order="stroke fill markers" d=" M 320 70 L 320 60 L 340 60 L 340 70 L 340 80 L 340 90 L 340 90 L 340 90 L 340 80 L 340 70 L 340 60 L 350 60 L 350 70 L 350 80 L 350 100 L 330 100 L 330 90 L 330 80 L 330 70 L 330 70 L 320 70 L 320 70 Z" fill-opacity="1"/></g><g><path fill="rgb(58,53,53)" stroke="none" paint-order="stroke fill markers" d=" M 160 120 L 160 110 L 170 110 L 180 110 L 190 110 L 200 110 L 200 120 L 190 120 L 180 120 L 170 120 L 160 120 L 160 120 Z" fill-opacity="1"/></g><g><path fill="rgb(58,53,53)" stroke="none" paint-order="stroke fill markers" d=" M 240 120 L 240 130 L 230 130 L 220 130 L 210 130 L 210 120 L 220 120 L 230 120 L 240 120 L 240 120 Z" fill-opacity="1"/></g><g><path fill="rgb(58,53,53)" stroke="none" paint-order="stroke fill markers" d=" M 280 130 L 280 140 L 270 140 L 270 140 L 270 150 L 260 150 L 260 130 L 270 130 L 280 130 L 280 130 Z" fill-opacity="1"/></g><g><path fill="rgb(35,32,32)" stroke="none" paint-order="stroke fill markers" d=" M 340 120 L 340 130 L 330 130 L 320 130 L 310 130 L 310 120 L 320 120 L 330 120 L 340 120 L 340 120 Z" fill-opacity="1"/></g><g><path fill="rgb(255,115,21)" stroke="none" paint-order="stroke fill markers" d=" M 360 130 L 360 120 L 370 120 L 380 120 L 380 130 L 370 130 L 360 130 L 360 130 Z" fill-opacity="1"/></g><g><path fill="rgb(35,32,32)" stroke="none" paint-order="stroke fill markers" d=" M 170 180 L 170 170 L 180 170 L 200 170 L 200 180 L 200 190 L 200 200 L 190 200 L 190 190 L 190 180 L 190 180 L 180 180 L 170 180 L 170 180 Z" fill-opacity="1"/></g><g><path fill="rgb(35,32,32)" stroke="none" paint-order="stroke fill markers" d=" M 240 170 L 240 180 L 230 180 L 220 180 L 210 180 L 210 170 L 220 170 L 230 170 L 240 170 L 240 170 Z" fill-opacity="1"/></g><g><path fill="rgb(35,32,32)" stroke="none" paint-order="stroke fill markers" d=" M 260 180 L 270 180 L 270 190 L 270 190 L 280 190 L 290 190 L 300 190 L 300 200 L 290 200 L 280 200 L 260 200 L 260 190 L 260 180 L 260 180 Z" fill-opacity="1"/></g><g><path fill="rgb(35,32,32)" stroke="none" paint-order="stroke fill markers" d=" M 340 170 L 340 180 L 330 180 L 320 180 L 310 180 L 310 170 L 320 170 L 330 170 L 340 170 L 340 170 Z" fill-opacity="1"/></g><g><path fill="rgb(35,32,32)" stroke="none" paint-order="stroke fill markers" d=" M 390 160 L 390 170 L 380 170 L 370 170 L 370 160 L 380 160 L 390 160 L 390 160 Z" fill-opacity="1"/></g><g><path fill="rgb(58,53,53)" stroke="none" paint-order="stroke fill markers" d=" M 30 260 L 30 270 L 20 270 L 10 270 L 10 260 L 20 260 L 30 260 L 30 260 Z" fill-opacity="1"/></g><g><path fill="rgb(58,53,53)" stroke="none" paint-order="stroke fill markers" d=" M 60 280 L 60 270 L 70 270 L 80 270 L 80 280 L 70 280 L 60 280 L 60 280 Z" fill-opacity="1"/></g><g><path fill="rgb(35,32,32)" stroke="none" paint-order="stroke fill markers" d=" M 120 280 L 120 270 L 130 270 L 150 270 L 150 280 L 150 290 L 150 300 L 140 300 L 140 290 L 140 280 L 140 280 L 130 280 L 120 280 L 120 280 Z" fill-opacity="1"/></g><g><path fill="rgb(35,32,32)" stroke="none" paint-order="stroke fill markers" d=" M 210 290 L 210 280 L 220 280 L 230 280 L 240 280 L 240 280 L 240 270 L 240 260 L 250 260 L 250 270 L 250 290 L 240 290 L 230 290 L 220 290 L 210 290 L 210 290 Z" fill-opacity="1"/></g><g><path fill="rgb(35,32,32)" stroke="none" paint-order="stroke fill markers" d=" M 280 280 L 280 290 L 270 290 L 270 290 L 270 300 L 260 300 L 260 280 L 270 280 L 280 280 L 280 280 Z" fill-opacity="1"/></g><g><path fill="rgb(255,115,21)" stroke="none" paint-order="stroke fill markers" d=" M 330 280 L 330 290 L 320 290 L 320 290 L 320 290 L 330 290 L 330 300 L 310 300 L 310 280 L 320 280 L 330 280 L 330 280 Z" fill-opacity="1"/></g><g><path fill="rgb(58,53,53)" stroke="none" paint-order="stroke fill markers" d=" M 360 280 L 360 270 L 380 270 L 380 290 L 370 290 L 360 290 L 360 280 L 370 280 L 370 280 L 370 280 L 360 280 L 360 280 Z" fill-opacity="1"/></g><g><path fill="rgb(35,32,32)" stroke="none" paint-order="stroke fill markers" d=" M 10 330 L 10 320 L 30 320 L 30 340 L 20 340 L 10 340 L 10 330 L 20 330 L 20 330 L 20 330 L 10 330 L 10 330 Z" fill-opacity="1"/></g><g><path fill="rgb(58,53,53)" stroke="none" paint-order="stroke fill markers" d=" M 80 330 L 80 340 L 70 340 L 70 340 L 70 350 L 60 350 L 60 330 L 70 330 L 80 330 L 80 330 Z" fill-opacity="1"/></g><g><path fill="rgb(35,32,32)" stroke="none" paint-order="stroke fill markers" d=" M 190 330 L 190 340 L 180 340 L 170 340 L 170 340 L 170 340 L 180 340 L 190 340 L 190 340 L 190 330 L 190 320 L 200 320 L 200 330 L 200 350 L 190 350 L 180 350 L 160 350 L 160 330 L 170 330 L 180 330 L 190 330 L 190 330 Z" fill-opacity="1"/></g><g><path fill="rgb(58,53,53)" stroke="none" paint-order="stroke fill markers" d=" M 210 310 L 220 310 L 220 320 L 220 330 L 220 340 L 220 350 L 210 350 L 210 340 L 210 330 L 210 320 L 210 310 L 210 310 Z" fill-opacity="1"/></g><g><path fill="rgb(58,53,53)" stroke="none" paint-order="stroke fill markers" d=" M 330 310 L 330 320 L 320 320 L 320 320 L 320 330 L 320 340 L 320 350 L 310 350 L 310 340 L 310 330 L 310 310 L 320 310 L 330 310 L 330 310 Z" fill-opacity="1"/></g><g><path fill="rgb(58,53,53)" stroke="none" paint-order="stroke fill markers" d=" M 360 330 L 360 320 L 370 320 L 380 320 L 380 330 L 370 330 L 360 330 L 360 330 Z" fill-opacity="1"/></g><g><path fill="rgb(35,32,32)" stroke="none" paint-order="stroke fill markers" d=" M 30 360 L 30 370 L 20 370 L 10 370 L 10 360 L 20 360 L 30 360 L 30 360 Z" fill-opacity="1"/></g><g><path fill="rgb(58,53,53)" stroke="none" paint-order="stroke fill markers" d=" M 60 380 L 60 370 L 70 370 L 80 370 L 80 380 L 70 380 L 60 380 L 60 380 Z" fill-opacity="1"/></g><g><path fill="rgb(35,32,32)" stroke="none" paint-order="stroke fill markers" d=" M 140 370 L 140 380 L 130 380 L 120 380 L 110 380 L 110 370 L 120 370 L 130 370 L 140 370 L 140 370 Z" fill-opacity="1"/></g><g><path fill="rgb(255,115,21)" stroke="none" paint-order="stroke fill markers" d=" M 240 380 L 240 390 L 230 390 L 220 390 L 220 390 L 220 390 L 230 390 L 240 390 L 240 390 L 240 380 L 240 370 L 250 370 L 250 380 L 250 400 L 240 400 L 230 400 L 210 400 L 210 380 L 220 380 L 230 380 L 240 380 L 240 380 Z" fill-opacity="1"/></g><g><path fill="rgb(58,53,53)" stroke="none" paint-order="stroke fill markers" d=" M 260 380 L 260 370 L 270 370 L 280 370 L 300 370 L 300 380 L 300 400 L 290 400 L 280 400 L 280 390 L 290 390 L 290 390 L 290 380 L 290 380 L 280 380 L 270 380 L 260 380 L 260 380 Z" fill-opacity="1"/></g><g><path fill="rgb(255,115,21)" stroke="none" paint-order="stroke fill markers" d=" M 330 380 L 330 390 L 320 390 L 320 390 L 320 400 L 310 400 L 310 380 L 320 380 L 330 380 L 330 380 Z" fill-opacity="1"/></g><g><path fill="rgb(35,32,32)" stroke="none" paint-order="stroke fill markers" d=" M 30 430 L 30 440 L 20 440 L 20 440 L 20 440 L 30 440 L 30 450 L 10 450 L 10 430 L 20 430 L 30 430 L 30 430 Z" fill-opacity="1"/></g><g><path fill="rgb(255,115,21)" stroke="none" paint-order="stroke fill markers" d=" M 80 430 L 80 440 L 70 440 L 70 440 L 70 440 L 80 440 L 80 450 L 60 450 L 60 430 L 70 430 L 80 430 L 80 430 Z" fill-opacity="1"/></g><g><path fill="rgb(58,53,53)" stroke="none" paint-order="stroke fill markers" d=" M 120 420 L 120 410 L 140 410 L 140 420 L 140 430 L 140 440 L 140 440 L 140 440 L 140 430 L 140 420 L 140 410 L 150 410 L 150 420 L 150 430 L 150 450 L 130 450 L 130 440 L 130 430 L 130 420 L 130 420 L 120 420 L 120 420 Z" fill-opacity="1"/></g><g><path fill="rgb(58,53,53)" stroke="none" paint-order="stroke fill markers" d=" M 180 420 L 180 430 L 160 430 L 160 420 L 160 410 L 170 410 L 170 420 L 170 420 L 180 420 L 180 420 Z" fill-opacity="1"/></g><g><path fill="rgb(255,115,21)" stroke="none" paint-order="stroke fill markers" d=" M 280 430 L 290 430 L 290 450 L 280 450 L 270 450 L 270 440 L 280 440 L 280 440 L 280 430 L 280 430 Z" fill-opacity="1"/></g><g><path fill="rgb(35,32,32)" stroke="none" paint-order="stroke fill markers" d=" M 310 430 L 310 420 L 320 420 L 330 420 L 330 430 L 320 430 L 310 430 L 310 430 Z" fill-opacity="1"/></g><g><path fill="rgb(255,115,21)" stroke="none" paint-order="stroke fill markers" d=" M 370 430 L 370 420 L 380 420 L 400 420 L 400 430 L 400 440 L 400 450 L 390 450 L 390 440 L 390 430 L 390 430 L 380 430 L 370 430 L 370 430 Z" fill-opacity="1"/></g><g><path fill="rgb(255,115,21)" stroke="none" paint-order="stroke fill markers" d=" M 40 460 L 40 470 L 30 470 L 20 470 L 20 460 L 30 460 L 40 460 L 40 460 Z" fill-opacity="1"/></g><g><path fill="rgb(35,32,32)" stroke="none" paint-order="stroke fill markers" d=" M 90 480 L 90 490 L 80 490 L 70 490 L 70 490 L 70 490 L 80 490 L 90 490 L 90 490 L 90 480 L 90 470 L 100 470 L 100 480 L 100 500 L 90 500 L 80 500 L 60 500 L 60 480 L 70 480 L 80 480 L 90 480 L 90 480 Z" fill-opacity="1"/></g><g><path fill="rgb(58,53,53)" stroke="none" paint-order="stroke fill markers" d=" M 110 480 L 110 470 L 120 470 L 130 470 L 150 470 L 150 480 L 150 500 L 140 500 L 130 500 L 130 490 L 140 490 L 140 490 L 140 480 L 140 480 L 130 480 L 120 480 L 110 480 L 110 480 Z" fill-opacity="1"/></g><g><path fill="rgb(35,32,32)" stroke="none" paint-order="stroke fill markers" d=" M 160 480 L 160 470 L 170 470 L 180 470 L 200 470 L 200 480 L 200 500 L 190 500 L 180 500 L 180 490 L 190 490 L 190 490 L 190 480 L 190 480 L 180 480 L 170 480 L 160 480 L 160 480 Z" fill-opacity="1"/></g><g><path fill="rgb(35,32,32)" stroke="none" paint-order="stroke fill markers" d=" M 270 470 L 270 460 L 290 460 L 290 470 L 290 480 L 290 490 L 290 490 L 290 490 L 290 480 L 290 470 L 290 460 L 300 460 L 300 470 L 300 480 L 300 500 L 280 500 L 280 490 L 280 480 L 280 470 L 280 470 L 270 470 L 270 470 Z" fill-opacity="1"/></g><g><path fill="rgb(35,32,32)" stroke="none" paint-order="stroke fill markers" d=" M 340 460 L 340 470 L 330 470 L 320 470 L 310 470 L 310 460 L 320 460 L 330 460 L 340 460 L 340 460 Z" fill-opacity="1"/></g><g><path fill="rgb(35,32,32)" stroke="none" paint-order="stroke fill markers" d=" M 360 480 L 360 470 L 370 470 L 380 470 L 400 470 L 400 480 L 400 500 L 390 500 L 380 500 L 380 490 L 390 490 L 390 490 L 390 480 L 390 480 L 380 480 L 370 480 L 360 480 L 360 480 Z" fill-opacity="1"/></g><g><path fill="rgb(35,32,32)" stroke="none" paint-order="stroke fill markers" d=" M 80 520 L 90 520 L 90 540 L 80 540 L 70 540 L 70 530 L 80 530 L 80 530 L 80 520 L 80 520 Z" fill-opacity="1"/></g><g><path fill="rgb(58,53,53)" stroke="none" paint-order="stroke fill markers" d=" M 140 530 L 140 540 L 130 540 L 120 540 L 120 540 L 120 540 L 130 540 L 140 540 L 140 540 L 140 530 L 140 520 L 150 520 L 150 530 L 150 550 L 140 550 L 130 550 L 110 550 L 110 530 L 120 530 L 130 530 L 140 530 L 140 530 Z" fill-opacity="1"/></g><g><path fill="rgb(35,32,32)" stroke="none" paint-order="stroke fill markers" d=" M 160 530 L 160 520 L 170 520 L 180 520 L 180 530 L 170 530 L 160 530 L 160 530 Z" fill-opacity="1"/></g><g><path fill="rgb(58,53,53)" stroke="none" paint-order="stroke fill markers" d=" M 210 510 L 220 510 L 220 520 L 220 530 L 220 540 L 220 550 L 210 550 L 210 540 L 210 530 L 210 520 L 210 510 L 210 510 Z" fill-opacity="1"/></g><g><path fill="rgb(255,115,21)" stroke="none" paint-order="stroke fill markers" d=" M 290 510 L 290 520 L 280 520 L 270 520 L 260 520 L 260 510 L 270 510 L 280 510 L 290 510 L 290 510 Z" fill-opacity="1"/></g><g><path fill="rgb(255,115,21)" stroke="none" paint-order="stroke fill markers" d=" M 330 530 L 330 540 L 320 540 L 320 540 L 320 540 L 330 540 L 330 550 L 310 550 L 310 530 L 320 530 L 330 530 L 330 530 Z" fill-opacity="1"/></g><g><path fill="rgb(255,115,21)" stroke="none" paint-order="stroke fill markers" d=" M 360 530 L 360 520 L 370 520 L 380 520 L 400 520 L 400 530 L 400 550 L 390 550 L 380 550 L 380 540 L 390 540 L 390 540 L 390 530 L 390 530 L 380 530 L 370 530 L 360 530 L 360 530 Z" fill-opacity="1"/></g><g><path fill="rgb(35,32,32)" stroke="none" paint-order="stroke fill markers" d=" M 40 570 L 40 580 L 30 580 L 10 580 L 10 570 L 10 560 L 20 560 L 20 570 L 20 570 L 30 570 L 40 570 L 40 570 Z" fill-opacity="1"/></g><g><path fill="rgb(255,115,21)" stroke="none" paint-order="stroke fill markers" d=" M 110 580 L 120 580 L 120 590 L 120 590 L 130 590 L 140 590 L 150 590 L 150 600 L 140 600 L 130 600 L 110 600 L 110 590 L 110 580 L 110 580 Z" fill-opacity="1"/></g><g><path fill="rgb(255,115,21)" stroke="none" paint-order="stroke fill markers" d=" M 180 580 L 180 590 L 170 590 L 170 590 L 170 590 L 180 590 L 180 600 L 160 600 L 160 580 L 170 580 L 180 580 L 180 580 Z" fill-opacity="1"/></g><g><path fill="rgb(255,115,21)" stroke="none" paint-order="stroke fill markers" d=" M 230 580 L 230 590 L 220 590 L 220 590 L 220 590 L 230 590 L 230 600 L 210 600 L 210 580 L 220 580 L 230 580 L 230 580 Z" fill-opacity="1"/></g><g><path fill="rgb(255,115,21)" stroke="none" paint-order="stroke fill markers" d=" M 260 580 L 260 570 L 270 570 L 280 570 L 280 580 L 270 580 L 260 580 L 260 580 Z" fill-opacity="1"/></g><g><path fill="rgb(35,32,32)" stroke="none" paint-order="stroke fill markers" d=" M 310 580 L 310 570 L 320 570 L 330 570 L 350 570 L 350 580 L 350 600 L 340 600 L 330 600 L 330 590 L 340 590 L 340 590 L 340 580 L 340 580 L 330 580 L 320 580 L 310 580 L 310 580 Z" fill-opacity="1"/></g><g><path fill="rgb(35,32,32)" stroke="none" paint-order="stroke fill markers" d=" M 30 630 L 30 640 L 20 640 L 20 640 L 20 640 L 30 640 L 30 650 L 10 650 L 10 630 L 20 630 L 30 630 L 30 630 Z" fill-opacity="1"/></g><g><path fill="rgb(58,53,53)" stroke="none" paint-order="stroke fill markers" d=" M 90 630 L 90 640 L 80 640 L 70 640 L 70 640 L 70 640 L 80 640 L 90 640 L 90 640 L 90 630 L 90 620 L 100 620 L 100 630 L 100 650 L 90 650 L 80 650 L 60 650 L 60 630 L 70 630 L 80 630 L 90 630 L 90 630 Z" fill-opacity="1"/></g><g><path fill="rgb(255,115,21)" stroke="none" paint-order="stroke fill markers" d=" M 120 630 L 120 620 L 130 620 L 150 620 L 150 630 L 150 640 L 150 650 L 140 650 L 140 640 L 140 630 L 140 630 L 130 630 L 120 630 L 120 630 Z" fill-opacity="1"/></g><g><path fill="rgb(255,115,21)" stroke="none" paint-order="stroke fill markers" d=" M 170 620 L 170 610 L 190 610 L 190 620 L 190 630 L 190 640 L 190 640 L 190 640 L 190 630 L 190 620 L 190 610 L 200 610 L 200 620 L 200 630 L 200 650 L 180 650 L 180 640 L 180 630 L 180 620 L 180 620 L 170 620 L 170 620 Z" fill-opacity="1"/></g><g><path fill="rgb(255,115,21)" stroke="none" paint-order="stroke fill markers" d=" M 280 620 L 290 620 L 290 630 L 290 640 L 290 640 L 290 640 L 290 630 L 300 630 L 300 650 L 280 650 L 280 640 L 280 630 L 280 620 L 280 620 Z" fill-opacity="1"/></g><g><path fill="rgb(255,115,21)" stroke="none" paint-order="stroke fill markers" d=" M 310 630 L 320 630 L 320 640 L 320 640 L 330 640 L 340 640 L 350 640 L 350 650 L 340 650 L 330 650 L 310 650 L 310 640 L 310 630 L 310 630 Z" fill-opacity="1"/></g><g><path fill="rgb(255,115,21)" stroke="none" paint-order="stroke fill markers" d=" M 380 630 L 380 640 L 370 640 L 370 640 L 370 650 L 360 650 L 360 630 L 370 630 L 380 630 L 380 630 Z" fill-opacity="1"/></g><g><path fill="rgb(35,32,32)" stroke="none" paint-order="stroke fill markers" d=" M 30 670 L 30 680 L 10 680 L 10 670 L 10 660 L 20 660 L 20 670 L 20 670 L 30 670 L 30 670 Z" fill-opacity="1"/></g><g><path fill="rgb(58,53,53)" stroke="none" paint-order="stroke fill markers" d=" M 140 670 L 140 680 L 130 680 L 120 680 L 110 680 L 110 670 L 120 670 L 130 670 L 140 670 L 140 670 Z" fill-opacity="1"/></g><g><path fill="rgb(35,32,32)" stroke="none" paint-order="stroke fill markers" d=" M 190 670 L 190 680 L 180 680 L 170 680 L 170 680 L 170 690 L 170 700 L 160 700 L 160 690 L 160 670 L 170 670 L 180 670 L 190 670 L 190 670 Z" fill-opacity="1"/></g><g><path fill="rgb(35,32,32)" stroke="none" paint-order="stroke fill markers" d=" M 220 680 L 220 670 L 230 670 L 250 670 L 250 680 L 250 690 L 250 700 L 240 700 L 240 690 L 240 680 L 240 680 L 230 680 L 220 680 L 220 680 Z" fill-opacity="1"/></g><g><path fill="rgb(35,32,32)" stroke="none" paint-order="stroke fill markers" d=" M 340 680 L 340 690 L 330 690 L 320 690 L 320 690 L 320 690 L 330 690 L 340 690 L 340 690 L 340 680 L 340 670 L 350 670 L 350 680 L 350 700 L 340 700 L 330 700 L 310 700 L 310 680 L 320 680 L 330 680 L 340 680 L 340 680 Z" fill-opacity="1"/></g><g><path fill="rgb(255,115,21)" stroke="none" paint-order="stroke fill markers" d=" M 360 660 L 370 660 L 370 670 L 370 680 L 370 690 L 370 700 L 360 700 L 360 690 L 360 680 L 360 670 L 360 660 L 360 660 Z" fill-opacity="1"/></g><g><path fill="rgb(58,53,53)" stroke="none" paint-order="stroke fill markers" d=" M 10 710 L 20 710 L 20 720 L 20 730 L 20 740 L 20 750 L 10 750 L 10 740 L 10 730 L 10 720 L 10 710 L 10 710 Z" fill-opacity="1"/></g><g><path fill="rgb(35,32,32)" stroke="none" paint-order="stroke fill markers" d=" M 60 730 L 60 720 L 70 720 L 80 720 L 80 730 L 70 730 L 60 730 L 60 730 Z" fill-opacity="1"/></g><g><path fill="rgb(58,53,53)" stroke="none" paint-order="stroke fill markers" d=" M 120 730 L 120 720 L 130 720 L 150 720 L 150 730 L 150 740 L 150 750 L 140 750 L 140 740 L 140 730 L 140 730 L 130 730 L 120 730 L 120 730 Z" fill-opacity="1"/></g><g><path fill="rgb(58,53,53)" stroke="none" paint-order="stroke fill markers" d=" M 210 730 L 220 730 L 220 740 L 220 740 L 230 740 L 240 740 L 250 740 L 250 750 L 240 750 L 230 750 L 210 750 L 210 740 L 210 730 L 210 730 Z" fill-opacity="1"/></g><g><path fill="rgb(58,53,53)" stroke="none" paint-order="stroke fill markers" d=" M 290 720 L 290 730 L 280 730 L 270 730 L 260 730 L 260 720 L 270 720 L 280 720 L 290 720 L 290 720 Z" fill-opacity="1"/></g><g><path fill="rgb(58,53,53)" stroke="none" paint-order="stroke fill markers" d=" M 320 720 L 320 710 L 340 710 L 340 720 L 340 730 L 340 740 L 340 740 L 340 740 L 340 730 L 340 720 L 340 710 L 350 710 L 350 720 L 350 730 L 350 750 L 330 750 L 330 740 L 330 730 L 330 720 L 330 720 L 320 720 L 320 720 Z" fill-opacity="1"/></g><g><path fill="rgb(58,53,53)" stroke="none" paint-order="stroke fill markers" d=" M 40 770 L 40 780 L 30 780 L 20 780 L 10 780 L 10 770 L 20 770 L 30 770 L 40 770 L 40 770 Z" fill-opacity="1"/></g><g><path fill="rgb(35,32,32)" stroke="none" paint-order="stroke fill markers" d=" M 90 770 L 90 780 L 80 780 L 70 780 L 70 780 L 70 790 L 70 800 L 60 800 L 60 790 L 60 770 L 70 770 L 80 770 L 90 770 L 90 770 Z" fill-opacity="1"/></g><g><path fill="rgb(35,32,32)" stroke="none" paint-order="stroke fill markers" d=" M 120 780 L 120 770 L 130 770 L 150 770 L 150 780 L 150 790 L 150 800 L 140 800 L 140 790 L 140 780 L 140 780 L 130 780 L 120 780 L 120 780 Z" fill-opacity="1"/></g><g><path fill="rgb(35,32,32)" stroke="none" paint-order="stroke fill markers" d=" M 210 780 L 210 770 L 220 770 L 230 770 L 230 780 L 220 780 L 210 780 L 210 780 Z" fill-opacity="1"/></g><g><path fill="rgb(255,115,21)" stroke="none" paint-order="stroke fill markers" d=" M 280 780 L 280 790 L 270 790 L 270 790 L 270 790 L 280 790 L 280 800 L 260 800 L 260 780 L 270 780 L 280 780 L 280 780 Z" fill-opacity="1"/></g><g><path fill="rgb(58,53,53)" stroke="none" paint-order="stroke fill markers" d=" M 340 780 L 340 790 L 330 790 L 320 790 L 320 790 L 320 790 L 330 790 L 340 790 L 340 790 L 340 780 L 340 770 L 350 770 L 350 780 L 350 800 L 340 800 L 330 800 L 310 800 L 310 780 L 320 780 L 330 780 L 340 780 L 340 780 Z" fill-opacity="1"/></g><g><path fill="rgb(35,32,32)" stroke="none" paint-order="stroke fill markers" d=" M 390 760 L 390 770 L 380 770 L 370 770 L 370 760 L 380 760 L 390 760 L 390 760 Z" fill-opacity="1"/></g><g><path fill="rgb(255,115,21)" stroke="none" paint-order="stroke fill markers" d=" M 270 820 L 270 810 L 290 810 L 290 820 L 290 840 L 280 840 L 270 840 L 270 830 L 280 830 L 280 830 L 280 820 L 280 820 L 270 820 L 270 820 Z" fill-opacity="1"/></g><g><path fill="rgb(58,53,53)" stroke="none" paint-order="stroke fill markers" d=" M 340 810 L 340 820 L 330 820 L 320 820 L 310 820 L 310 810 L 320 810 L 330 810 L 340 810 L 340 810 Z" fill-opacity="1"/></g><g><path fill="rgb(58,53,53)" stroke="none" paint-order="stroke fill markers" d=" M 390 820 L 390 830 L 380 830 L 370 830 L 360 830 L 360 820 L 370 820 L 380 820 L 390 820 L 390 820 Z" fill-opacity="1"/></g><g><path fill="rgb(255,115,21)" stroke="none" paint-order="stroke fill markers" d=" M 40 910 L 40 920 L 30 920 L 20 920 L 10 920 L 10 910 L 20 910 L 30 910 L 40 910 L 40 910 Z" fill-opacity="1"/></g><g><path fill="rgb(255,115,21)" stroke="none" paint-order="stroke fill markers" d=" M 80 910 L 80 920 L 70 920 L 60 920 L 60 910 L 70 910 L 80 910 L 80 910 Z" fill-opacity="1"/></g><g><path fill="rgb(35,32,32)" stroke="none" paint-order="stroke fill markers" d=" M 110 920 L 110 910 L 120 910 L 130 910 L 140 910 L 150 910 L 150 920 L 140 920 L 130 920 L 120 920 L 110 920 L 110 920 Z" fill-opacity="1"/></g><g><path fill="rgb(58,53,53)" stroke="none" paint-order="stroke fill markers" d=" M 170 920 L 170 910 L 190 910 L 190 920 L 190 930 L 190 940 L 190 940 L 190 940 L 190 930 L 190 920 L 190 910 L 200 910 L 200 920 L 200 930 L 200 950 L 180 950 L 180 940 L 180 930 L 180 920 L 180 920 L 170 920 L 170 920 Z" fill-opacity="1"/></g><g><path fill="rgb(58,53,53)" stroke="none" paint-order="stroke fill markers" d=" M 210 930 L 210 920 L 220 920 L 230 920 L 230 930 L 220 930 L 210 930 L 210 930 Z" fill-opacity="1"/></g><g><path fill="rgb(255,115,21)" stroke="none" paint-order="stroke fill markers" d=" M 290 920 L 290 930 L 280 930 L 270 930 L 260 930 L 260 920 L 270 920 L 280 920 L 290 920 L 290 920 Z" fill-opacity="1"/></g><g><path fill="rgb(35,32,32)" stroke="none" paint-order="stroke fill markers" d=" M 340 910 L 340 920 L 330 920 L 320 920 L 320 910 L 330 910 L 340 910 L 340 910 Z" fill-opacity="1"/></g><g><path fill="rgb(255,115,21)" stroke="none" paint-order="stroke fill markers" d=" M 360 930 L 360 920 L 370 920 L 380 920 L 390 920 L 390 920 L 390 920 L 380 920 L 370 920 L 360 920 L 360 910 L 370 910 L 380 910 L 400 910 L 400 930 L 390 930 L 380 930 L 370 930 L 360 930 L 360 930 Z" fill-opacity="1"/></g><g><path fill="rgb(255,115,21)" stroke="none" paint-order="stroke fill markers" d=" M 40 980 L 40 990 L 30 990 L 20 990 L 20 990 L 20 990 L 30 990 L 40 990 L 40 990 L 40 980 L 40 970 L 50 970 L 50 980 L 50 1000 L 40 1000 L 30 1000 L 10 1000 L 10 980 L 20 980 L 30 980 L 40 980 L 40 980 Z" fill-opacity="1"/></g><g><path fill="rgb(58,53,53)" stroke="none" paint-order="stroke fill markers" d=" M 80 980 L 80 990 L 70 990 L 70 990 L 70 1000 L 60 1000 L 60 980 L 70 980 L 80 980 L 80 980 Z" fill-opacity="1"/></g><g><path fill="rgb(35,32,32)" stroke="none" paint-order="stroke fill markers" d=" M 140 970 L 140 980 L 130 980 L 110 980 L 110 960 L 120 960 L 130 960 L 140 960 L 150 960 L 150 970 L 140 970 L 130 970 L 120 970 L 120 970 L 120 970 L 130 970 L 140 970 L 140 970 Z" fill-opacity="1"/></g><g><path fill="rgb(58,53,53)" stroke="none" paint-order="stroke fill markers" d=" M 180 980 L 180 990 L 170 990 L 170 990 L 170 990 L 180 990 L 180 1000 L 160 1000 L 160 980 L 170 980 L 180 980 L 180 980 Z" fill-opacity="1"/></g><g><path fill="rgb(58,53,53)" stroke="none" paint-order="stroke fill markers" d=" M 210 960 L 220 960 L 220 970 L 220 980 L 220 990 L 220 1000 L 210 1000 L 210 990 L 210 980 L 210 970 L 210 960 L 210 960 Z" fill-opacity="1"/></g><g><path fill="rgb(255,115,21)" stroke="none" paint-order="stroke fill markers" d=" M 290 970 L 290 980 L 280 980 L 270 980 L 260 980 L 260 970 L 270 970 L 280 970 L 290 970 L 290 970 Z" fill-opacity="1"/></g><g><path fill="rgb(255,115,21)" stroke="none" paint-order="stroke fill markers" d=" M 330 980 L 330 990 L 320 990 L 320 990 L 320 990 L 330 990 L 330 1000 L 310 1000 L 310 980 L 320 980 L 330 980 L 330 980 Z" fill-opacity="1"/></g><g><path fill="rgb(35,32,32)" stroke="none" paint-order="stroke fill markers" d=" M 360 980 L 360 970 L 380 970 L 380 990 L 370 990 L 360 990 L 360 980 L 370 980 L 370 980 L 370 980 L 360 980 L 360 980 Z" fill-opacity="1"/></g><g><path fill="rgb(58,53,53)" stroke="none" paint-order="stroke fill markers" d=" M 40 1020 L 40 1030 L 30 1030 L 20 1030 L 10 1030 L 10 1020 L 20 1020 L 30 1020 L 40 1020 L 40 1020 Z" fill-opacity="1"/></g><g><path fill="rgb(35,32,32)" stroke="none" paint-order="stroke fill markers" d=" M 70 1030 L 70 1020 L 80 1020 L 100 1020 L 100 1030 L 100 1040 L 100 1050 L 90 1050 L 90 1040 L 90 1030 L 90 1030 L 80 1030 L 70 1030 L 70 1030 Z" fill-opacity="1"/></g><g><path fill="rgb(35,32,32)" stroke="none" paint-order="stroke fill markers" d=" M 110 1030 L 110 1020 L 120 1020 L 130 1020 L 150 1020 L 150 1030 L 150 1050 L 140 1050 L 130 1050 L 130 1040 L 140 1040 L 140 1040 L 140 1030 L 140 1030 L 130 1030 L 120 1030 L 110 1030 L 110 1030 Z" fill-opacity="1"/></g><g><path fill="rgb(255,115,21)" stroke="none" paint-order="stroke fill markers" d=" M 180 1030 L 180 1040 L 170 1040 L 170 1040 L 170 1050 L 160 1050 L 160 1030 L 170 1030 L 180 1030 L 180 1030 Z" fill-opacity="1"/></g><g><path fill="rgb(58,53,53)" stroke="none" paint-order="stroke fill markers" d=" M 210 1030 L 220 1030 L 220 1040 L 220 1040 L 230 1040 L 240 1040 L 250 1040 L 250 1050 L 240 1050 L 230 1050 L 210 1050 L 210 1040 L 210 1030 L 210 1030 Z" fill-opacity="1"/></g><g><path fill="rgb(58,53,53)" stroke="none" paint-order="stroke fill markers" d=" M 280 1030 L 290 1030 L 290 1050 L 280 1050 L 270 1050 L 270 1040 L 280 1040 L 280 1040 L 280 1030 L 280 1030 Z" fill-opacity="1"/></g><g><path fill="rgb(35,32,32)" stroke="none" paint-order="stroke fill markers" d=" M 330 1030 L 330 1040 L 320 1040 L 320 1040 L 320 1040 L 330 1040 L 330 1050 L 310 1050 L 310 1030 L 320 1030 L 330 1030 L 330 1030 Z" fill-opacity="1"/></g><g><path fill="rgb(255,115,21)" stroke="none" paint-order="stroke fill markers" d=" M 380 1010 L 390 1010 L 390 1020 L 390 1040 L 380 1040 L 370 1040 L 370 1030 L 380 1030 L 380 1030 L 380 1020 L 380 1010 L 380 1010 Z" fill-opacity="1"/></g><g><path fill="rgb(35,32,32)" stroke="none" paint-order="stroke fill markers" d=" M 40 1060 L 40 1070 L 30 1070 L 20 1070 L 20 1070 L 20 1080 L 10 1080 L 10 1060 L 20 1060 L 30 1060 L 40 1060 L 40 1060 Z" fill-opacity="1"/></g><g><path fill="rgb(58,53,53)" stroke="none" paint-order="stroke fill markers" d=" M 70 1070 L 70 1060 L 80 1060 L 100 1060 L 100 1070 L 100 1080 L 100 1090 L 100 1100 L 90 1100 L 90 1090 L 90 1080 L 90 1070 L 90 1070 L 80 1070 L 70 1070 L 70 1070 Z" fill-opacity="1"/></g><g><path fill="rgb(35,32,32)" stroke="none" paint-order="stroke fill markers" d=" M 140 1070 L 140 1080 L 130 1080 L 120 1080 L 110 1080 L 110 1070 L 120 1070 L 130 1070 L 140 1070 L 140 1070 Z" fill-opacity="1"/></g><g><path fill="rgb(35,32,32)" stroke="none" paint-order="stroke fill markers" d=" M 190 1070 L 190 1080 L 180 1080 L 160 1080 L 160 1070 L 160 1060 L 170 1060 L 170 1070 L 170 1070 L 180 1070 L 190 1070 L 190 1070 Z" fill-opacity="1"/></g><g><path fill="rgb(35,32,32)" stroke="none" paint-order="stroke fill markers" d=" M 220 1070 L 220 1060 L 230 1060 L 240 1060 L 250 1060 L 250 1070 L 240 1070 L 230 1070 L 220 1070 L 220 1070 Z" fill-opacity="1"/></g></g></svg>